{"glyphs":{"0":{"ha":774,"x_min":34,"x_max":749,"o":"m 34 463 q 61 670 34 580 q 136 822 88 760 q 249 917 184 884 q 391 950 314 950 q 535 917 469 950 q 648 822 600 884 q 722 670 696 760 q 749 463 749 580 q 722 267 749 354 q 648 117 696 179 q 535 23 600 56 q 391 -10 469 -10 q 249 23 314 -10 q 136 117 184 56 q 61 267 88 179 q 34 463 34 354 m 171 463 q 185 303 171 375 q 227 180 200 231 q 297 100 255 128 q 393 72 338 72 q 488 100 447 72 q 556 180 528 128 q 598 303 584 231 q 611 463 611 375 q 598 630 611 556 q 556 756 584 704 q 488 836 528 808 q 393 864 447 864 q 297 836 338 864 q 227 756 255 808 q 185 630 200 704 q 171 463 171 556 z "},"1":{"ha":450,"x_min":77,"x_max":351,"o":"m 77 806 l 289 937 l 321 937 q 316 800 316 899 l 316 137 q 328 51 316 85 q 351 0 340 18 l 163 0 q 188 52 176 18 q 200 137 200 86 l 200 683 q 196 759 200 738 q 164 781 193 781 q 121 774 147 781 q 77 760 96 768 l 77 806 z "},"2":{"ha":658,"x_min":49,"x_max":618,"o":"m 607 714 q 591 635 607 675 q 532 528 576 594 q 405 357 487 461 q 193 86 324 252 l 474 86 q 563 96 530 86 q 618 126 595 105 q 615 89 616 104 q 612 61 613 75 q 610 34 611 48 q 607 0 608 21 l 49 0 q 50 42 49 18 q 51 83 51 67 q 139 199 96 144 q 225 308 182 254 q 324 433 278 374 q 404 544 370 492 q 457 639 437 595 q 477 720 477 683 q 465 773 477 746 q 430 821 453 800 q 372 856 407 843 q 289 870 337 870 q 178 848 228 870 q 97 798 128 827 l 97 902 q 185 936 131 921 q 324 950 239 950 q 437 932 385 950 q 526 883 489 915 q 585 808 564 851 q 607 714 607 765 z "},"3":{"ha":658,"x_min":81,"x_max":607,"o":"m 607 263 q 583 153 607 203 q 518 69 559 104 q 423 14 477 34 q 308 -6 369 -6 q 169 7 225 -6 q 81 38 113 21 l 81 145 q 160 93 110 113 q 271 73 211 73 q 358 89 319 73 q 422 129 396 104 q 463 188 449 155 q 477 257 477 220 q 467 326 477 292 q 431 388 457 361 q 362 433 405 415 q 252 452 318 450 l 187 452 l 187 527 l 252 527 q 362 545 318 528 q 431 588 405 562 q 467 649 457 615 q 477 720 477 683 q 465 773 477 746 q 430 821 453 800 q 372 856 407 843 q 289 870 337 870 q 178 848 228 870 q 97 798 128 827 l 97 902 q 185 936 131 921 q 324 950 239 950 q 437 932 385 950 q 526 883 489 915 q 585 808 564 851 q 607 714 607 765 q 599 655 607 686 q 570 593 591 624 q 515 534 549 562 q 426 489 481 506 q 516 446 481 474 q 571 386 551 418 q 599 322 591 354 q 607 263 607 289 z "},"4":{"ha":731,"x_min":45,"x_max":702,"o":"m 696 268 l 559 268 l 559 137 q 571 51 559 85 q 594 0 583 18 l 405 0 q 430 52 418 18 q 442 137 442 86 l 442 268 l 45 268 l 45 342 l 455 937 l 564 937 q 559 800 559 899 l 559 354 q 639 361 602 354 q 702 385 675 367 l 696 268 m 152 356 l 442 354 l 442 782 l 152 356 z "},"5":{"ha":655,"x_min":81,"x_max":618,"o":"m 195 570 l 297 570 q 455 540 393 570 q 553 467 517 511 q 603 373 589 423 q 618 281 618 322 q 594 168 618 220 q 529 77 570 117 q 434 16 489 38 q 319 -6 380 -6 q 175 7 235 -6 q 81 38 115 21 l 81 147 q 167 94 113 115 q 283 73 220 73 q 369 91 330 73 q 433 137 407 109 q 474 202 460 166 q 489 273 489 238 q 478 346 489 308 q 442 413 468 383 q 373 462 417 442 q 263 484 329 482 l 93 484 q 110 710 101 602 q 128 937 120 819 l 564 937 l 570 819 q 516 844 549 837 q 426 851 482 851 l 217 851 l 195 570 z "},"6":{"ha":678,"x_min":35,"x_max":659,"o":"m 402 867 q 318 843 359 867 q 246 775 278 819 q 194 669 214 731 q 174 532 174 607 q 267 588 211 564 q 383 613 324 613 q 511 585 458 613 q 596 514 564 557 q 644 418 629 471 q 659 316 659 366 q 635 192 659 251 q 568 88 610 133 q 472 17 527 43 q 356 -10 417 -10 q 222 22 281 -10 q 121 112 163 54 q 57 250 80 169 q 35 428 35 330 q 64 639 35 543 q 142 804 93 734 q 259 912 192 873 q 404 950 327 950 q 498 942 450 950 q 586 921 546 934 q 587 860 586 889 q 587 801 587 832 q 508 852 552 838 q 402 867 463 867 m 348 527 q 259 507 310 527 q 174 442 208 487 q 221 163 174 254 q 351 72 268 72 q 427 92 394 72 q 483 144 460 112 q 517 219 506 177 q 528 303 528 260 q 487 465 528 404 q 348 527 445 527 z "},"7":{"ha":616,"x_min":32,"x_max":602,"o":"m 600 902 q 545 781 576 852 q 481 627 514 710 q 414 453 447 543 q 354 280 382 364 q 307 124 326 196 q 281 0 287 51 l 133 0 q 164 125 140 53 q 219 278 187 196 q 290 445 251 359 q 367 607 329 530 q 441 747 405 683 q 501 851 476 811 l 176 851 q 87 841 120 851 q 32 811 54 830 q 35 847 34 832 q 38 875 37 862 q 42 902 40 888 q 45 937 43 916 l 602 937 l 600 902 z "},"8":{"ha":685,"x_min":42,"x_max":655,"o":"m 42 252 q 55 321 42 286 q 94 389 69 356 q 156 447 120 421 q 236 487 192 473 q 160 536 190 508 q 110 594 129 564 q 83 655 91 624 q 75 710 75 685 q 96 805 75 761 q 152 881 117 849 q 238 932 188 913 q 345 950 287 950 q 453 932 402 950 q 540 881 503 913 q 599 805 578 849 q 619 710 619 761 q 615 656 619 685 q 595 598 610 627 q 551 540 580 568 q 476 487 522 512 q 559 433 525 463 q 614 371 592 402 q 645 310 635 340 q 655 254 655 279 q 630 145 655 193 q 563 64 605 97 q 465 12 520 30 q 346 -6 409 -6 q 230 11 286 -6 q 133 62 174 29 q 66 144 91 96 q 42 252 42 192 m 525 247 q 508 311 525 283 q 460 362 490 338 q 390 404 429 385 q 307 441 350 423 q 204 361 236 413 q 171 247 171 308 q 184 183 171 214 q 220 128 196 152 q 275 89 243 104 q 348 75 308 75 q 424 89 391 75 q 479 128 457 104 q 513 183 501 152 q 525 247 525 214 m 496 714 q 487 765 496 738 q 458 816 477 793 q 411 853 439 838 q 345 868 383 868 q 277 855 305 868 q 231 821 249 841 q 204 773 212 800 q 196 723 196 747 q 208 666 196 691 q 243 619 220 640 q 297 580 265 599 q 367 541 329 560 q 468 608 439 572 q 496 714 496 645 z "},"9":{"ha":683,"x_min":24,"x_max":651,"o":"m 286 73 q 370 97 329 73 q 442 165 410 121 q 493 271 474 209 q 512 409 512 334 q 420 352 476 377 q 305 327 364 327 q 175 354 228 327 q 88 425 121 382 q 39 520 54 468 q 24 624 24 573 q 49 749 24 690 q 116 852 73 808 q 214 924 158 897 q 330 950 270 950 q 465 918 405 950 q 565 829 524 886 q 629 690 607 771 q 651 511 651 608 q 623 301 651 396 q 544 136 594 206 q 428 29 495 67 q 284 -10 361 -10 q 190 -2 238 -10 q 101 19 142 6 q 100 79 101 51 q 99 139 99 107 q 180 88 136 102 q 286 73 225 73 m 338 413 q 382 418 358 413 q 429 433 405 423 q 475 460 453 444 q 512 498 496 476 q 466 777 512 686 q 335 868 420 868 q 260 848 294 868 q 204 796 227 829 q 168 722 180 763 q 156 637 156 680 q 200 474 156 535 q 338 413 243 413 z "},"\u0000":{"ha":3,"x_min":0,"x_max":0,"o":""}," ":{"ha":262,"x_min":0,"x_max":0,"o":""},"!":{"ha":307,"x_min":70,"x_max":249,"o":"m 88 943 l 231 943 q 230 877 231 913 q 228 813 228 841 l 182 260 l 137 260 l 91 813 l 88 943 m 70 70 q 96 129 70 107 q 160 152 121 152 q 223 129 198 152 q 249 70 249 107 q 223 12 249 34 q 160 -10 198 -10 q 96 12 121 -10 q 70 70 70 34 z "},"\"":{"ha":461,"x_min":69,"x_max":399,"o":"m 69 969 l 171 969 l 171 841 l 155 642 l 86 642 q 78 742 83 694 q 69 841 73 789 l 69 969 m 297 969 l 399 969 l 399 841 l 382 642 l 314 642 q 305 742 310 694 q 297 841 300 789 l 297 969 z "},"#":{"ha":851,"x_min":65,"x_max":793,"o":"m 449 0 l 492 223 l 275 223 l 231 0 l 150 0 l 193 223 l 65 223 l 65 308 l 209 308 l 270 635 l 115 635 l 115 720 l 286 720 l 327 943 l 410 943 l 367 720 l 584 720 l 626 943 l 707 943 l 666 720 l 793 720 l 793 635 l 650 635 l 589 308 l 746 308 l 746 223 l 573 223 l 530 0 l 449 0 m 508 308 l 567 635 l 351 635 l 291 308 l 508 308 z "},"$":{"ha":635,"x_min":49,"x_max":611,"o":"m 484 219 q 470 283 484 255 q 433 334 457 311 q 377 374 409 356 q 310 409 345 391 q 217 459 263 431 q 134 524 171 487 q 74 608 97 562 q 51 714 51 655 q 73 808 51 765 q 132 883 94 851 q 220 932 169 915 q 332 950 271 950 q 472 936 418 950 q 559 902 525 921 l 559 798 q 480 848 530 827 q 369 870 429 870 q 226 829 273 870 q 179 736 179 789 q 195 678 179 704 q 237 628 211 651 q 298 585 263 605 q 369 546 332 565 q 464 489 420 519 q 540 422 508 458 q 592 342 573 386 q 611 241 611 297 q 587 137 611 185 q 522 55 564 89 q 423 2 481 21 q 299 -18 366 -18 q 154 -3 212 -18 q 61 29 96 11 l 49 152 q 150 89 88 115 q 270 62 212 62 q 361 77 321 62 q 428 113 401 91 q 469 164 455 136 q 484 219 484 192 m 294 1052 l 358 1052 l 358 -140 l 294 -140 l 294 1052 z "},"%":{"ha":907,"x_min":30,"x_max":881,"o":"m 168 0 l 91 0 q 101 12 96 5 q 122 41 107 19 q 166 105 137 62 q 247 223 195 147 q 378 417 299 300 q 573 702 458 533 l 734 937 l 816 937 l 168 0 m 536 219 q 550 321 536 276 q 587 396 564 366 q 643 442 611 426 q 709 458 674 458 q 775 442 744 458 q 830 396 806 426 q 868 321 854 366 q 881 219 881 276 q 868 124 881 166 q 830 52 854 81 q 775 6 806 22 q 709 -10 744 -10 q 643 6 674 -10 q 587 52 611 22 q 550 124 564 81 q 536 219 536 166 m 619 219 q 643 89 619 137 q 709 42 667 42 q 773 89 750 42 q 797 219 797 137 q 773 355 797 305 q 709 405 750 405 q 643 355 667 405 q 619 219 619 305 m 30 707 q 44 809 30 765 q 81 884 57 854 q 136 931 105 915 q 203 947 168 947 q 269 931 238 947 q 324 884 300 915 q 362 809 348 854 q 375 707 375 765 q 362 612 375 655 q 324 540 348 570 q 269 495 300 511 q 203 479 238 479 q 136 495 168 479 q 81 540 105 511 q 44 612 57 570 q 30 707 30 655 m 113 707 q 137 579 113 627 q 203 530 161 530 q 267 579 243 530 q 291 707 291 627 q 267 844 291 793 q 203 894 243 894 q 137 844 161 894 q 113 707 113 793 z "},"&":{"ha":999,"x_min":37,"x_max":987,"o":"m 615 757 q 598 678 615 714 q 554 611 581 642 q 492 558 527 581 q 421 517 457 535 l 677 246 q 718 341 704 295 q 736 421 733 386 q 734 475 738 449 q 720 520 730 501 l 864 520 q 832 471 841 498 q 821 415 822 444 q 800 307 817 372 q 741 176 782 243 q 837 102 784 126 q 937 78 891 78 q 987 86 969 78 q 947 23 979 54 q 857 -8 916 -8 q 756 18 803 -8 q 663 89 709 43 q 532 18 607 45 q 358 -8 458 -8 q 238 9 295 -8 q 136 57 180 26 q 64 136 91 89 q 37 243 37 182 q 57 342 37 297 q 107 421 77 386 q 175 484 137 457 q 249 530 212 511 q 168 631 201 578 q 134 746 134 683 q 152 825 134 789 q 200 889 169 862 q 274 932 231 916 q 364 950 316 948 q 472 935 425 950 q 551 893 519 920 q 599 832 583 867 q 615 757 615 797 m 374 69 q 498 93 441 69 q 602 156 556 117 l 303 474 q 200 389 246 441 q 155 262 155 337 q 172 184 155 220 q 217 123 188 148 q 286 83 246 97 q 374 69 326 69 m 496 761 q 462 844 495 809 q 378 878 429 878 q 288 840 321 878 q 255 757 255 801 q 287 664 255 707 q 367 576 318 621 q 467 661 436 618 q 496 761 498 704 z "},"'":{"ha":231,"x_min":70,"x_max":171,"o":"m 70 969 l 171 969 l 171 841 l 155 642 l 86 642 q 78 742 83 694 q 70 841 73 789 l 70 969 z "},"(":{"ha":413,"x_min":67,"x_max":383,"o":"m 310 -244 q 125 60 184 -91 q 70 362 67 211 q 125 663 67 512 q 310 967 184 814 l 383 967 q 304 833 340 907 q 242 678 268 758 q 201 517 216 599 q 187 362 187 436 q 201 206 187 287 q 242 45 216 125 q 304 -109 268 -35 q 383 -244 340 -184 l 310 -244 z "},")":{"ha":413,"x_min":37,"x_max":353,"o":"m 37 -244 q 117 -109 80 -184 q 180 45 153 -35 q 220 206 206 125 q 235 362 235 287 q 220 517 235 436 q 180 678 206 599 q 117 833 153 758 q 37 967 80 907 l 112 967 q 295 663 236 814 q 351 362 353 512 q 295 60 353 211 q 112 -244 236 -91 l 37 -244 z "},"*":{"ha":474,"x_min":24,"x_max":453,"o":"m 239 702 q 196 622 219 666 q 150 541 172 578 q 108 569 128 556 q 65 595 88 583 l 188 720 q 106 735 152 726 q 24 752 61 744 q 41 801 32 777 q 57 848 49 824 l 211 768 l 185 953 l 292 953 l 267 768 q 342 806 299 784 q 421 848 385 829 l 453 750 l 289 722 l 410 594 l 327 541 l 239 702 z "},"+":{"ha":717,"x_min":78,"x_max":670,"o":"m 415 722 l 415 466 l 670 466 l 670 382 l 415 382 l 415 126 l 334 126 l 334 382 l 78 382 l 78 466 l 334 466 l 334 722 l 415 722 z "},",":{"ha":311,"x_min":70,"x_max":249,"o":"m 249 43 q 216 -77 249 -21 q 107 -161 184 -133 q 144 -108 129 -136 q 158 -57 158 -80 q 148 -24 158 -40 q 120 -2 137 -8 q 70 70 70 16 q 96 129 70 107 q 160 152 121 152 q 223 123 198 152 q 249 43 249 94 z "},"-":{"ha":548,"x_min":78,"x_max":476,"o":"m 78 385 l 476 385 l 476 300 l 78 300 l 78 385 z "},".":{"ha":311,"x_min":70,"x_max":249,"o":"m 70 70 q 96 129 70 107 q 160 152 121 152 q 223 129 198 152 q 249 70 249 107 q 223 12 249 34 q 160 -10 198 -10 q 96 12 121 -10 q 70 70 70 34 z "},"/":{"ha":468,"x_min":26,"x_max":460,"o":"m 26 -246 q 202 362 113 62 q 378 967 291 661 l 460 967 q 283 360 372 659 q 107 -246 195 61 l 26 -246 z "},":":{"ha":311,"x_min":70,"x_max":249,"o":"m 70 70 q 96 129 70 107 q 160 152 121 152 q 223 129 198 152 q 249 70 249 107 q 223 12 249 34 q 160 -10 198 -10 q 96 12 121 -10 q 70 70 70 34 m 70 559 q 96 618 70 595 q 160 640 121 640 q 223 618 198 640 q 249 559 249 595 q 223 500 249 522 q 160 479 198 479 q 96 500 121 479 q 70 559 70 522 z "},";":{"ha":311,"x_min":70,"x_max":249,"o":"m 70 559 q 96 618 70 595 q 160 640 121 640 q 223 618 198 640 q 249 559 249 595 q 223 500 249 522 q 160 479 198 479 q 96 500 121 479 q 70 559 70 522 m 249 43 q 216 -77 249 -21 q 107 -161 184 -133 q 144 -108 129 -136 q 158 -57 158 -80 q 148 -24 158 -40 q 120 -2 137 -8 q 70 70 70 16 q 96 129 70 107 q 160 152 121 152 q 223 123 198 152 q 249 43 249 94 z "},"<":{"ha":717,"x_min":78,"x_max":670,"o":"m 670 688 l 670 607 l 174 423 q 421 333 291 382 q 670 241 552 284 l 670 160 q 374 269 519 216 q 78 378 228 322 l 78 469 l 670 688 z "},"=":{"ha":717,"x_min":78,"x_max":670,"o":"m 670 351 l 670 267 l 78 267 l 78 351 l 670 351 m 670 580 l 670 495 l 78 495 l 78 580 l 670 580 z "},">":{"ha":717,"x_min":78,"x_max":670,"o":"m 670 469 l 670 378 l 78 160 l 78 241 l 575 423 q 327 514 458 465 q 78 607 196 564 l 78 688 l 670 469 z "},"?":{"ha":576,"x_min":56,"x_max":532,"o":"m 184 295 q 195 382 184 343 q 223 451 206 420 q 263 508 241 482 q 307 559 284 535 q 374 640 345 600 q 402 736 402 680 q 395 786 402 761 q 372 829 388 811 q 330 859 356 848 q 263 870 303 870 q 150 851 211 870 q 56 798 89 832 l 56 902 q 167 937 102 924 q 292 950 231 950 q 467 890 402 950 q 532 726 532 830 q 519 656 532 688 q 486 597 506 624 q 441 546 466 570 q 393 500 417 522 q 301 409 342 458 q 260 295 260 359 l 260 260 l 184 260 l 184 295 m 133 70 q 158 129 133 107 q 222 152 184 152 q 286 129 260 152 q 311 70 311 107 q 286 12 311 34 q 222 -10 260 -10 q 158 12 184 -10 q 133 70 133 34 z "},"@":{"ha":1011,"x_min":42,"x_max":985,"o":"m 766 220 q 721 223 744 220 q 676 234 698 225 q 636 258 655 243 q 607 299 618 273 q 532 231 578 251 q 434 211 485 211 q 370 227 401 211 q 318 274 340 243 q 287 350 297 305 q 281 450 276 394 q 308 556 287 508 q 360 639 329 603 q 429 694 391 674 q 504 714 466 714 q 575 702 540 714 q 627 659 610 690 l 635 702 q 636 704 635 704 q 637 707 637 704 l 720 707 q 716 675 717 698 q 712 631 715 653 l 693 450 q 689 415 690 433 q 688 385 688 398 q 712 291 688 314 q 781 268 736 268 q 871 326 841 268 q 900 490 900 385 q 871 650 900 576 q 790 777 841 723 q 669 861 739 830 q 516 892 599 892 q 371 862 439 892 q 252 776 303 832 q 172 639 201 720 q 142 458 142 559 q 172 285 142 362 q 254 152 203 208 q 373 68 305 97 q 516 38 441 38 q 650 52 584 38 q 766 91 715 65 q 760 57 763 67 q 754 22 757 46 q 643 -10 707 2 q 512 -21 580 -21 q 331 14 417 -21 q 181 111 246 48 q 79 262 117 174 q 42 458 42 350 q 79 663 42 572 q 181 817 117 754 q 331 916 246 881 q 512 950 417 950 q 696 915 610 950 q 847 818 782 880 q 948 674 912 757 q 985 493 985 591 q 971 385 985 434 q 928 299 956 335 q 860 241 900 262 q 766 220 819 220 m 374 460 q 374 369 367 405 q 396 310 380 332 q 433 278 412 287 q 476 268 453 268 q 513 275 493 268 q 551 298 533 283 q 582 339 568 313 q 600 404 595 366 l 619 573 q 592 635 623 613 q 525 656 562 656 q 425 605 465 655 q 374 460 385 556 z "},"A":{"ha":921,"x_min":35,"x_max":907,"o":"m 619 337 l 275 337 l 208 140 l 209 140 q 198 101 201 118 q 195 72 195 85 q 202 30 195 46 q 217 2 209 13 q 124 1 164 2 q 35 0 83 0 q 75 52 53 18 q 115 134 97 86 l 345 795 l 343 793 q 358 860 358 822 q 353 900 358 880 q 332 937 348 920 l 525 937 q 562 845 540 902 q 619 695 584 789 q 706 465 655 602 q 827 134 757 327 q 869 50 848 83 q 907 0 891 18 l 685 0 q 698 26 693 10 q 702 65 702 43 q 688 140 702 94 l 619 337 m 300 417 l 591 417 l 442 821 l 300 417 z "},"B":{"ha":733,"x_min":62,"x_max":696,"o":"m 643 699 q 632 638 643 669 q 599 580 621 607 q 548 532 578 552 q 484 504 519 512 l 484 500 q 576 468 536 490 q 642 414 615 445 q 682 346 669 383 q 696 273 696 310 q 671 158 696 209 q 601 72 647 107 q 491 18 556 37 q 348 0 426 0 l 62 0 q 88 52 75 18 q 101 137 101 86 l 101 800 q 88 886 101 852 q 62 937 75 920 l 311 937 q 556 882 468 937 q 643 699 643 827 m 216 457 l 216 86 l 330 86 q 495 142 437 86 q 552 284 552 198 q 496 410 552 364 q 334 457 441 457 l 216 457 m 216 851 l 216 533 l 319 533 q 449 576 401 533 q 498 690 498 619 q 448 813 498 776 q 316 851 398 851 l 216 851 z "},"C":{"ha":782,"x_min":34,"x_max":754,"o":"m 179 463 q 207 303 179 375 q 282 177 235 230 q 389 96 329 125 q 514 67 449 67 q 647 87 581 67 q 754 152 712 107 l 754 45 q 637 5 707 19 q 490 -10 567 -10 q 318 23 401 -10 q 172 117 236 56 q 71 267 109 179 q 34 463 34 354 q 73 670 34 580 q 178 822 113 760 q 326 917 243 884 q 495 950 409 950 q 647 936 586 950 q 744 902 707 921 l 744 797 q 511 870 677 870 q 382 841 442 870 q 276 759 321 813 q 205 631 231 706 q 179 463 179 556 z "},"D":{"ha":837,"x_min":62,"x_max":814,"o":"m 62 0 q 88 52 75 18 q 101 137 101 86 l 101 800 q 88 886 101 852 q 62 937 75 920 l 374 937 q 545 906 465 937 q 686 815 626 875 q 780 667 746 755 q 814 463 814 578 q 780 268 814 354 q 686 122 746 182 q 545 31 626 62 q 374 0 465 0 l 62 0 m 216 851 l 216 81 l 375 81 q 498 109 442 81 q 593 185 554 136 q 655 305 632 235 q 677 463 677 375 q 655 627 677 556 q 593 749 632 699 q 498 825 554 798 q 375 851 442 851 l 216 851 z "},"E":{"ha":615,"x_min":64,"x_max":580,"o":"m 573 0 l 64 0 q 89 52 77 18 q 101 137 101 86 l 101 800 q 89 886 101 852 q 64 937 77 920 l 573 937 l 580 814 q 526 842 559 833 q 437 851 493 851 l 217 851 l 217 524 l 441 524 q 504 533 479 524 q 544 554 530 543 q 545 481 544 512 q 546 412 546 450 q 504 433 530 423 q 441 444 477 444 l 217 444 l 217 86 l 437 86 q 525 96 493 86 q 578 126 557 105 l 573 0 z "},"F":{"ha":599,"x_min":64,"x_max":580,"o":"m 217 444 l 217 137 q 228 53 217 88 q 251 0 239 18 l 64 0 q 88 52 75 18 q 101 137 101 86 l 101 800 q 89 886 101 852 q 64 937 77 920 l 573 937 l 580 814 q 526 842 559 833 q 437 851 493 851 l 217 851 l 217 524 l 441 524 q 504 533 479 524 q 544 554 530 543 q 545 481 544 512 q 546 412 546 450 q 504 433 530 423 q 441 444 477 444 l 217 444 z "},"G":{"ha":886,"x_min":34,"x_max":852,"o":"m 819 80 q 668 12 758 34 q 487 -10 578 -10 q 315 23 398 -10 q 171 117 233 56 q 71 267 109 179 q 34 463 34 354 q 77 670 34 580 q 190 822 120 760 q 348 917 260 884 q 527 950 436 950 q 678 936 618 950 q 776 902 739 921 l 776 797 q 685 852 741 835 q 543 870 629 870 q 402 841 468 870 q 286 759 335 813 q 208 631 236 706 q 179 463 179 556 q 205 303 179 375 q 277 177 231 230 q 383 96 322 125 q 511 67 444 67 q 607 79 557 67 q 702 113 658 91 l 702 322 q 692 398 702 369 q 669 442 682 426 q 761 443 723 442 q 852 444 800 444 q 829 399 840 428 q 819 322 819 370 l 819 80 z "},"H":{"ha":857,"x_min":62,"x_max":814,"o":"m 777 137 q 789 51 777 85 q 814 0 801 18 l 624 0 q 650 52 637 18 q 663 137 663 86 l 663 452 l 216 452 l 216 137 q 227 51 216 85 q 251 0 239 18 l 62 0 q 88 52 75 18 q 101 137 101 86 l 101 800 q 88 886 101 852 q 62 937 75 920 l 249 937 q 227 883 238 918 q 216 800 216 848 l 216 532 l 663 532 l 663 800 q 650 886 663 852 q 624 937 637 920 l 813 937 q 789 883 800 918 q 777 800 777 848 l 777 137 z "},"I":{"ha":308,"x_min":65,"x_max":254,"o":"m 219 137 q 231 51 219 85 q 254 0 243 18 l 65 0 q 90 52 78 18 q 102 137 102 86 l 102 800 q 90 886 102 852 q 65 937 78 920 l 252 937 q 230 883 241 918 q 219 800 219 848 l 219 137 z "},"J":{"ha":308,"x_min":-93,"x_max":254,"o":"m 219 88 q 197 -71 219 -8 q 144 -171 176 -134 q 75 -223 112 -208 q 8 -238 38 -238 q -93 -195 -62 -238 q -24 -179 -59 -193 q 40 -131 11 -164 q 86 -41 69 -97 q 104 104 104 16 l 104 800 q 91 886 104 852 q 65 937 78 920 l 254 937 q 231 883 243 918 q 219 800 219 848 l 219 88 z "},"K":{"ha":769,"x_min":62,"x_max":749,"o":"m 216 530 l 461 824 q 496 895 493 868 q 492 937 500 921 l 698 937 q 643 898 672 921 q 583 837 615 875 l 583 840 l 322 533 l 643 99 q 698 40 669 65 q 749 0 726 14 l 506 0 q 513 42 516 14 q 479 112 511 69 l 216 461 l 216 137 q 227 51 216 85 q 252 0 239 18 l 62 0 q 88 52 75 18 q 101 137 101 86 l 101 800 q 88 886 101 852 q 62 937 75 920 l 251 937 q 227 883 238 918 q 216 800 216 848 l 216 530 z "},"L":{"ha":591,"x_min":64,"x_max":580,"o":"m 572 0 l 64 0 q 89 52 77 18 q 101 137 101 86 l 101 800 q 89 886 101 852 q 64 937 77 920 l 251 937 q 228 883 239 918 q 217 800 217 848 l 217 86 l 437 86 q 525 99 492 86 q 580 134 559 112 l 572 0 z "},"M":{"ha":1100,"x_min":59,"x_max":1047,"o":"m 97 800 q 85 886 97 852 q 59 937 72 920 l 193 937 q 201 922 196 931 q 212 904 206 913 l 212 905 q 258 823 228 878 q 332 683 287 768 q 436 481 377 599 q 570 212 495 364 q 740 591 667 434 q 849 830 813 749 q 880 896 868 870 q 897 937 892 921 l 1047 937 q 1023 884 1036 918 q 1009 800 1009 851 l 1009 137 q 1022 51 1009 85 q 1047 0 1034 18 l 857 0 q 882 52 870 18 q 894 137 894 86 l 894 709 l 873 656 q 776 452 822 554 q 690 261 730 350 q 621 104 650 172 q 578 0 592 35 l 535 0 q 515 45 530 13 q 477 121 500 77 q 425 220 453 166 q 369 330 398 273 q 315 434 342 383 q 267 529 289 485 q 227 606 244 573 q 204 656 211 639 l 182 709 l 182 137 q 194 51 182 85 q 217 0 206 18 l 59 0 q 85 52 72 18 q 97 137 97 86 l 97 800 l 97 800 z "},"N":{"ha":864,"x_min":57,"x_max":821,"o":"m 784 0 l 717 0 q 673 61 709 6 q 583 188 637 117 q 466 345 528 262 q 349 501 404 428 q 255 629 294 575 q 208 699 216 683 l 187 736 l 187 137 q 199 51 187 85 q 222 0 211 18 l 57 0 q 83 52 70 18 q 96 137 96 86 l 96 800 q 83 886 96 852 q 57 937 70 920 l 180 937 l 283 795 q 398 646 335 728 q 517 487 460 564 q 619 349 575 410 q 675 262 663 287 l 696 227 l 696 800 q 684 886 696 852 q 659 937 672 920 l 821 937 q 797 883 808 918 q 785 800 785 848 l 784 0 z "},"O":{"ha":936,"x_min":34,"x_max":912,"o":"m 34 463 q 69 670 34 580 q 164 822 104 760 q 303 917 223 884 q 471 950 382 950 q 643 917 562 950 q 783 822 723 884 q 877 670 843 760 q 912 463 912 580 q 877 267 912 354 q 783 117 843 179 q 643 23 723 56 q 471 -10 562 -10 q 303 23 382 -10 q 164 117 223 56 q 69 267 104 179 q 34 463 34 354 m 169 463 q 192 303 169 375 q 255 180 214 231 q 350 100 295 128 q 473 72 405 72 q 595 100 540 72 q 690 180 651 128 q 752 303 730 231 q 774 463 774 375 q 752 630 774 556 q 690 756 730 704 q 595 836 651 808 q 473 864 540 864 q 350 836 405 864 q 255 756 295 808 q 192 630 214 704 q 169 463 169 556 z "},"P":{"ha":667,"x_min":64,"x_max":653,"o":"m 217 375 l 217 137 q 229 51 217 85 q 252 0 241 18 l 64 0 q 89 52 77 18 q 101 137 101 86 l 101 800 q 89 886 101 852 q 64 937 77 920 l 284 937 q 430 921 362 937 q 548 871 498 905 q 625 781 597 837 q 653 647 653 725 q 625 531 653 581 q 548 445 597 481 q 430 393 498 410 q 284 375 362 375 l 217 375 m 217 851 l 217 457 l 286 457 q 456 507 396 457 q 516 647 516 557 q 456 805 516 760 q 286 851 396 851 l 217 851 z "},"Q":{"ha":937,"x_min":32,"x_max":943,"o":"m 880 -129 q 912 -128 896 -129 q 943 -123 929 -126 q 900 -192 936 -164 q 811 -219 864 -219 q 655 -172 739 -219 q 496 -10 572 -126 l 471 -10 q 303 23 382 -10 q 163 117 223 56 q 67 267 102 179 q 32 463 32 354 q 67 670 32 580 q 163 822 102 760 q 303 917 223 884 q 471 950 382 950 q 643 917 562 950 q 782 822 723 884 q 876 670 841 760 q 910 463 910 580 q 888 306 910 378 q 825 176 865 233 q 729 77 784 118 q 607 11 674 35 q 663 -53 631 -26 q 730 -97 694 -80 q 805 -121 766 -113 q 880 -129 843 -129 m 169 463 q 192 303 169 375 q 255 180 214 231 q 350 100 295 128 q 473 72 405 72 q 595 100 540 72 q 690 180 651 128 q 752 303 730 231 q 774 463 774 375 q 752 630 774 556 q 690 756 730 704 q 595 836 651 808 q 473 864 540 864 q 350 836 405 864 q 255 756 295 808 q 192 630 214 704 q 169 463 169 556 z "},"R":{"ha":774,"x_min":62,"x_max":731,"o":"m 216 391 l 216 137 q 228 51 216 85 q 252 0 241 18 l 62 0 q 88 52 75 18 q 101 137 101 86 l 101 800 q 88 886 101 852 q 62 937 75 920 l 300 937 q 436 921 374 937 q 544 872 498 905 q 615 785 589 838 q 640 659 640 733 q 627 576 640 616 q 589 503 613 536 q 532 445 565 469 q 458 409 498 420 l 643 99 l 643 101 q 686 42 663 67 q 731 0 710 16 l 511 0 q 522 38 522 16 q 516 71 522 53 q 498 112 511 89 l 329 391 l 216 391 m 216 851 l 216 473 l 286 473 q 449 528 396 473 q 503 659 503 583 q 452 805 503 760 q 302 851 401 851 l 216 851 z "},"S":{"ha":635,"x_min":49,"x_max":611,"o":"m 484 219 q 470 285 484 255 q 433 338 457 314 q 377 380 409 361 q 310 417 345 399 q 217 466 263 439 q 134 528 171 493 q 74 609 97 564 q 51 714 51 655 q 73 808 51 765 q 132 883 94 851 q 220 932 169 915 q 332 950 271 950 q 472 936 418 950 q 559 902 525 921 l 559 798 q 480 848 530 827 q 369 870 429 870 q 226 829 273 870 q 179 736 179 789 q 195 676 179 704 q 237 624 211 648 q 298 579 263 600 q 369 538 332 557 q 464 482 420 511 q 540 418 508 453 q 592 340 573 383 q 611 241 611 297 q 587 137 611 185 q 522 55 564 89 q 423 2 481 21 q 299 -18 366 -18 q 154 -3 212 -18 q 61 29 96 11 l 49 152 q 150 89 88 115 q 270 62 212 62 q 361 77 321 62 q 428 113 401 91 q 469 164 455 136 q 484 219 484 192 z "},"T":{"ha":702,"x_min":11,"x_max":694,"o":"m 14 937 l 691 937 q 692 872 691 900 q 694 809 693 843 q 642 843 672 835 q 549 851 611 851 l 410 851 l 410 137 q 422 51 410 85 q 445 0 434 18 l 257 0 q 283 52 270 18 q 295 137 295 86 l 295 851 l 156 851 q 66 840 101 851 q 11 809 32 829 l 14 937 z "},"U":{"ha":860,"x_min":62,"x_max":814,"o":"m 216 308 q 268 136 216 200 q 426 72 321 72 q 485 78 453 72 q 549 96 517 85 q 611 123 581 107 q 663 158 640 139 l 663 800 q 650 886 663 852 q 624 937 637 920 l 813 937 q 789 883 800 918 q 777 800 777 848 l 777 137 q 789 51 777 85 q 814 0 801 18 l 667 0 q 669 16 669 5 l 663 77 q 603 40 639 56 q 528 14 567 24 q 451 -3 489 3 q 388 -10 413 -10 q 251 14 307 -10 q 163 79 196 37 q 115 179 129 121 q 101 303 101 236 l 101 800 q 88 886 101 852 q 62 937 75 920 l 249 937 q 227 883 238 918 q 216 800 216 848 l 216 308 z "},"V":{"ha":920,"x_min":37,"x_max":892,"o":"m 487 179 l 720 797 q 731 837 728 819 q 734 870 734 856 q 730 910 734 894 q 718 937 725 926 l 892 937 q 856 888 876 920 q 814 805 835 856 q 702 516 749 634 q 621 309 656 398 q 558 148 586 220 q 501 0 530 77 l 425 0 l 113 805 q 73 888 93 856 q 37 937 53 920 l 257 937 q 246 910 251 926 q 241 870 241 894 q 243 836 241 854 q 254 797 246 817 l 487 179 z "},"W":{"ha":1282,"x_min":29,"x_max":1269,"o":"m 413 198 l 643 937 l 696 937 l 926 198 l 1095 797 q 1104 835 1102 816 q 1106 870 1106 854 q 1102 908 1106 892 q 1094 936 1098 924 q 1183 936 1138 936 q 1269 937 1228 937 q 1235 884 1255 918 q 1201 803 1215 849 q 1099 477 1141 613 q 1027 248 1057 342 q 977 96 996 155 q 945 0 958 37 l 860 0 l 648 672 q 576 433 607 535 q 520 254 544 332 q 478 116 496 176 q 447 0 460 56 l 346 0 q 314 108 334 43 q 263 267 294 172 q 192 493 233 362 q 97 803 152 624 q 62 884 81 851 q 29 937 43 918 l 244 937 q 236 911 239 926 q 233 873 233 896 q 235 837 233 857 q 246 797 238 817 l 413 198 z "},"X":{"ha":916,"x_min":53,"x_max":889,"o":"m 538 506 q 664 303 597 410 q 792 99 731 195 q 841 43 813 69 q 889 0 868 18 l 632 0 q 642 37 642 14 q 636 69 642 51 q 618 110 631 88 l 445 390 l 255 112 q 227 32 227 67 q 229 15 227 24 q 235 0 231 6 l 53 0 q 101 40 75 14 q 150 99 128 65 l 399 465 q 283 651 343 556 q 168 837 223 746 q 121 893 147 867 q 72 937 94 920 l 327 937 q 318 899 318 923 q 323 867 318 886 q 342 824 329 848 l 493 580 l 659 824 q 683 870 677 851 q 690 904 690 889 q 686 922 690 913 q 680 937 683 931 l 867 937 q 817 896 845 921 q 766 837 790 872 l 538 506 z "},"Y":{"ha":829,"x_min":26,"x_max":813,"o":"m 481 369 l 481 137 q 493 51 481 85 q 517 0 506 18 l 327 0 q 353 52 340 18 q 366 137 366 86 l 366 369 l 101 835 q 60 892 80 867 q 26 934 40 916 q 85 935 57 934 q 137 936 112 936 q 188 936 163 936 q 246 937 214 937 q 239 896 239 923 q 243 864 239 881 q 260 825 247 848 l 460 481 l 640 825 q 657 864 653 848 q 661 896 661 881 q 653 937 661 921 l 813 937 q 774 894 795 920 q 736 835 754 868 l 481 369 z "},"Z":{"ha":747,"x_min":34,"x_max":718,"o":"m 35 83 q 85 162 49 107 q 172 291 121 217 q 283 451 222 364 q 404 627 343 538 l 559 851 l 180 851 q 91 840 125 851 q 35 809 57 829 q 36 845 35 830 q 37 874 37 860 q 38 902 37 888 q 38 937 38 916 l 718 937 l 718 870 q 672 797 704 846 q 595 682 640 749 q 492 533 549 615 q 370 361 434 452 q 277 226 329 299 q 179 86 225 153 l 573 86 q 663 97 629 86 q 718 128 696 107 q 718 91 718 105 q 717 63 717 77 q 716 35 717 49 q 715 0 715 21 l 34 0 l 35 83 z "},"[":{"ha":442,"x_min":86,"x_max":402,"o":"m 394 -244 l 86 -244 q 97 -192 93 -227 q 102 -107 102 -156 l 102 800 q 97 884 102 851 q 86 937 93 918 l 394 937 q 399 901 398 916 q 402 868 401 886 q 348 880 382 878 q 259 883 314 883 l 217 883 l 217 -190 l 259 -190 q 346 -188 314 -190 q 401 -180 378 -187 l 394 -244 z "},"\\":{"ha":468,"x_min":26,"x_max":460,"o":"m 378 -246 l 26 967 l 107 967 l 460 -246 l 378 -246 z "},"]":{"ha":442,"x_min":51,"x_max":367,"o":"m 53 -180 q 107 -188 75 -187 q 195 -190 139 -190 l 236 -190 l 236 883 l 195 883 q 105 880 137 883 q 51 868 72 878 q 54 904 53 892 q 57 937 56 915 l 367 937 q 356 884 361 918 q 351 800 351 849 l 351 -107 q 356 -192 351 -158 q 367 -244 361 -227 l 57 -244 l 53 -180 z "},"^":{"ha":572,"x_min":29,"x_max":552,"o":"m 552 500 l 473 500 l 291 880 q 200 690 249 790 q 109 500 150 591 l 29 500 q 144 741 89 624 q 262 982 200 857 l 319 982 l 552 500 z "},"_":{"ha":605,"x_min":2,"x_max":610,"o":"m 610 -137 l 610 -222 l 2 -222 l 2 -137 l 610 -137 z "},"`":{"ha":335,"x_min":-56,"x_max":200,"o":"m 131 755 q 81 786 112 766 q 19 831 49 806 q -34 884 -11 856 q -56 943 -56 913 q -35 939 -54 940 q 7 936 -16 937 q 52 934 30 934 q 81 934 73 934 q 97 892 85 915 q 125 845 109 868 q 161 797 142 821 q 200 757 180 774 l 131 755 l 131 755 z "},"a":{"ha":623,"x_min":42,"x_max":564,"o":"m 428 445 q 392 548 428 511 q 284 584 356 584 q 182 568 225 584 q 107 528 139 551 l 107 621 q 198 647 142 634 q 300 659 254 659 q 396 647 351 659 q 473 609 441 635 q 525 539 506 583 q 544 433 544 495 l 544 105 q 550 38 544 64 q 564 0 556 13 l 434 0 q 431 22 433 10 q 429 46 429 35 q 342 3 391 14 q 239 -8 294 -8 q 98 38 155 -8 q 42 163 42 85 q 75 269 42 225 q 164 341 109 313 q 287 382 219 369 q 428 399 356 396 l 428 445 m 158 177 q 199 92 158 118 q 291 65 239 65 q 370 82 334 65 q 428 121 405 99 l 428 337 q 335 328 383 337 q 248 300 287 319 q 184 251 209 281 q 158 177 158 220 z "},"b":{"ha":696,"x_min":77,"x_max":659,"o":"m 217 572 q 321 637 268 616 q 421 658 374 658 q 595 571 530 658 q 659 335 659 484 q 633 193 659 255 q 563 88 607 131 q 463 22 519 45 q 348 0 407 0 l 77 0 q 93 39 85 14 q 101 105 101 64 l 101 872 q 93 939 101 913 q 78 977 86 964 l 236 977 q 223 936 228 963 q 217 872 217 910 l 217 572 m 543 327 q 494 519 543 465 q 367 573 445 573 q 280 549 321 573 q 217 493 239 525 l 217 77 l 310 77 q 394 92 353 77 q 469 138 436 107 q 523 216 503 169 q 543 327 543 263 z "},"c":{"ha":576,"x_min":38,"x_max":552,"o":"m 160 318 q 220 130 160 201 q 382 59 281 59 q 473 77 426 59 q 552 123 519 94 q 551 77 552 93 q 549 35 549 62 q 469 4 527 18 q 345 -10 412 -10 q 225 12 281 -10 q 128 76 169 34 q 62 179 86 118 q 38 318 38 239 q 65 461 38 398 q 135 568 91 524 q 236 636 179 613 q 358 659 294 659 q 458 649 405 659 q 541 627 511 639 l 541 535 q 472 572 514 557 q 382 586 429 586 q 220 513 281 586 q 160 318 160 441 z "},"d":{"ha":677,"x_min":37,"x_max":623,"o":"m 37 314 q 60 449 37 386 q 123 557 83 511 q 216 631 163 603 q 327 658 268 658 q 400 649 359 658 q 484 618 441 640 l 484 872 q 477 939 484 913 q 461 977 469 964 l 623 977 q 607 938 615 963 q 600 872 600 913 l 600 105 q 607 38 600 64 q 621 0 613 13 l 487 0 q 485 34 485 11 q 484 75 485 56 q 387 8 441 24 q 286 -8 334 -8 q 188 14 233 -8 q 109 78 142 37 q 56 180 75 120 q 37 314 37 239 m 153 322 q 169 205 153 252 q 211 129 185 158 q 268 88 236 101 q 332 75 300 75 q 419 100 378 75 q 484 156 460 125 l 484 544 q 425 568 453 559 q 366 576 396 576 q 284 560 322 576 q 216 513 246 544 q 170 434 187 482 q 153 322 153 386 z "},"e":{"ha":663,"x_min":38,"x_max":627,"o":"m 342 658 q 553 574 481 658 q 627 345 626 490 l 627 311 l 163 311 q 180 216 163 262 q 227 136 198 171 q 297 80 257 101 q 382 59 337 59 q 478 73 428 59 q 562 115 528 88 l 559 35 q 481 4 535 18 q 361 -10 428 -10 q 236 10 295 -10 q 133 71 177 30 q 64 173 89 112 q 38 318 38 235 q 61 453 38 391 q 125 561 85 516 q 221 632 166 607 q 342 658 276 658 m 345 583 q 273 568 305 583 q 217 525 241 552 q 179 461 193 498 q 161 382 164 425 l 512 382 q 496 461 508 425 q 465 525 485 498 q 416 568 445 552 q 345 583 386 583 z "},"f":{"ha":410,"x_min":14,"x_max":461,"o":"m 396 580 l 236 580 l 236 105 q 243 38 236 64 q 257 0 249 13 l 97 0 q 113 39 105 14 q 120 105 120 64 l 120 580 l 14 580 l 14 648 l 120 648 l 120 784 q 136 869 120 832 q 179 933 152 907 q 243 973 206 959 q 322 987 279 987 q 396 979 366 987 q 449 964 426 972 l 449 888 q 359 912 417 912 q 271 883 305 912 q 236 781 236 854 l 236 648 l 396 648 l 396 580 m 449 972 l 461 961 q 457 962 460 961 q 452 963 453 963 q 449 964 449 963 l 449 972 z "},"g":{"ha":623,"x_min":24,"x_max":635,"o":"m 43 421 q 65 524 43 479 q 123 598 86 568 q 208 643 160 627 q 307 659 255 659 q 395 649 356 659 q 466 629 434 639 q 510 617 490 621 q 551 613 530 613 q 591 618 568 613 q 627 643 613 623 q 635 611 635 629 q 623 572 635 587 q 591 549 610 556 q 553 545 573 543 q 517 562 533 548 l 514 559 q 551 489 538 530 q 564 421 564 449 q 541 326 564 369 q 483 254 519 284 q 401 207 447 223 q 307 190 354 190 q 276 191 294 190 q 228 201 259 192 q 196 169 206 182 q 187 147 187 156 q 214 112 184 121 q 329 97 244 102 q 460 77 407 94 q 544 34 512 61 q 587 -26 575 8 q 600 -94 600 -59 q 581 -179 600 -139 q 524 -249 562 -219 q 434 -298 487 -279 q 314 -316 382 -316 q 206 -305 257 -316 q 116 -272 155 -294 q 53 -221 77 -251 q 27 -153 30 -192 q 33 -100 24 -121 q 56 -64 42 -78 q 86 -42 70 -49 q 115 -30 102 -34 q 107 -57 110 -43 q 102 -84 104 -70 q 104 -110 101 -97 q 164 -196 115 -160 q 313 -233 212 -233 q 399 -222 362 -233 q 460 -193 436 -211 q 495 -152 484 -176 q 506 -107 506 -129 q 498 -69 506 -88 q 469 -33 490 -49 q 409 -4 447 -16 q 313 11 372 8 q 143 39 198 18 q 88 105 88 61 q 119 168 88 140 q 179 219 150 196 q 81 303 118 249 q 43 421 43 356 m 169 418 q 207 299 169 345 q 305 252 244 252 q 403 299 366 252 q 441 418 441 345 q 403 547 441 500 q 305 594 366 594 q 207 547 244 594 q 169 418 169 500 z "},"h":{"ha":706,"x_min":77,"x_max":647,"o":"m 217 572 q 328 636 268 615 q 439 658 388 658 q 535 639 498 658 q 592 590 572 621 q 620 520 613 559 q 627 441 627 481 l 627 105 q 633 38 627 64 q 647 0 639 13 l 489 0 q 504 39 496 14 q 511 105 511 64 l 511 429 q 481 535 511 495 q 401 575 452 575 q 217 503 303 575 l 217 105 q 223 38 217 64 q 236 0 228 13 l 77 0 q 93 39 86 14 q 101 105 101 64 l 101 872 q 93 939 101 913 q 78 977 86 964 l 236 977 q 223 936 228 963 q 217 872 217 910 l 217 572 z "},"i":{"ha":310,"x_min":70,"x_max":251,"o":"m 220 105 q 226 38 220 64 q 239 0 231 13 l 80 0 q 95 39 88 14 q 102 105 102 64 l 102 544 q 96 610 102 584 q 81 648 89 635 l 239 648 q 226 607 231 634 q 220 544 220 581 l 220 105 m 70 867 q 97 927 70 904 q 160 950 123 950 q 224 927 198 950 q 251 867 251 904 q 224 809 251 830 q 160 787 198 787 q 97 809 123 787 q 70 867 70 830 z "},"j":{"ha":310,"x_min":-11,"x_max":251,"o":"m 220 -93 q 184 -236 220 -184 q 89 -289 147 -289 q -11 -246 18 -289 q 77 -196 51 -239 q 104 -75 104 -152 l 104 544 q 97 610 104 584 q 81 648 89 635 l 239 648 q 226 607 231 634 q 220 544 220 581 l 220 -93 m 70 867 q 97 927 70 904 q 161 950 123 950 q 225 927 200 950 q 251 867 251 904 q 225 809 251 830 q 161 787 200 787 q 97 809 123 787 q 70 867 70 830 z "},"k":{"ha":688,"x_min":77,"x_max":647,"o":"m 367 431 q 478 247 421 340 q 587 62 535 153 l 587 64 q 613 30 595 46 q 647 0 631 13 l 460 0 q 465 31 465 13 q 452 72 465 49 l 287 343 l 217 265 l 217 105 q 223 38 217 64 q 236 0 228 13 l 77 0 q 93 39 86 14 q 101 105 101 64 l 101 872 q 93 939 101 913 q 78 977 86 964 l 236 977 q 223 936 228 963 q 217 872 217 910 l 217 361 l 398 560 q 426 610 421 587 q 426 648 431 632 l 587 648 q 544 619 567 635 q 509 584 522 603 l 509 586 l 367 431 z "},"l":{"ha":310,"x_min":80,"x_max":239,"o":"m 220 105 q 226 38 220 64 q 239 0 231 13 l 80 0 q 96 39 88 14 q 104 105 104 64 l 104 872 q 97 939 104 913 q 81 977 89 964 l 239 977 q 226 936 231 963 q 220 872 220 910 l 220 105 z "},"m":{"ha":1033,"x_min":75,"x_max":990,"o":"m 852 429 q 824 535 852 495 q 744 575 795 575 q 657 552 691 575 q 589 496 623 528 q 591 470 591 484 q 592 441 592 457 l 592 105 q 598 38 592 64 q 611 0 603 13 l 452 0 q 469 39 461 14 q 476 105 476 64 l 476 429 q 446 535 476 495 q 366 575 417 575 q 281 557 314 575 q 214 503 247 540 l 214 105 q 220 38 214 64 q 235 0 227 13 l 75 0 q 90 39 83 14 q 97 105 97 64 l 97 544 q 91 610 97 584 q 77 648 85 635 l 209 648 q 210 640 209 643 q 212 631 211 637 q 213 614 212 624 q 214 583 214 603 q 311 639 265 621 q 404 658 356 658 q 519 639 477 658 q 581 572 560 621 q 683 638 632 618 q 781 658 734 658 q 876 639 840 658 q 934 590 913 621 q 962 520 955 559 q 969 441 969 481 l 969 105 q 975 38 969 64 q 990 0 982 13 l 830 0 q 845 39 838 14 q 852 105 852 64 l 852 429 l 852 429 z "},"n":{"ha":706,"x_min":77,"x_max":647,"o":"m 511 429 q 481 535 511 495 q 401 575 452 575 q 217 503 303 575 l 217 105 q 223 38 217 64 q 236 0 228 13 l 77 0 q 93 39 86 14 q 101 105 101 64 l 101 544 q 93 610 101 584 q 78 648 86 635 l 211 648 q 215 611 212 634 q 217 572 217 589 q 328 636 268 615 q 439 658 388 658 q 535 639 498 658 q 592 590 572 621 q 620 520 613 559 q 627 441 627 481 l 627 105 q 633 38 627 64 q 647 0 639 13 l 489 0 q 504 39 496 14 q 511 105 511 64 l 511 429 l 511 429 z "},"o":{"ha":690,"x_min":38,"x_max":661,"o":"m 38 318 q 63 462 38 399 q 130 569 88 525 q 229 636 172 613 q 350 659 286 659 q 469 636 412 659 q 568 569 525 613 q 636 462 611 525 q 661 318 661 399 q 636 180 661 241 q 568 77 611 120 q 469 13 525 35 q 350 -10 412 -10 q 229 13 286 -10 q 130 77 172 35 q 63 180 88 120 q 38 318 38 241 m 160 318 q 211 130 160 201 q 348 59 262 59 q 485 130 434 59 q 536 318 536 201 q 485 513 536 441 q 348 586 434 586 q 211 513 262 586 q 160 318 160 441 z "},"p":{"ha":702,"x_min":77,"x_max":661,"o":"m 661 335 q 638 192 661 255 q 576 86 615 129 q 484 20 536 43 q 372 -3 431 -3 q 300 6 340 -3 q 217 37 260 14 l 217 -174 q 223 -241 217 -216 q 236 -279 228 -267 l 77 -279 q 93 -240 85 -265 q 101 -174 101 -216 l 101 544 q 93 610 101 584 q 78 648 86 635 l 212 648 q 216 623 214 635 q 217 570 217 610 q 320 641 267 624 q 421 658 374 658 q 595 571 530 658 q 661 335 661 484 m 544 327 q 495 519 544 465 q 367 573 445 573 q 280 549 321 573 q 217 493 239 525 l 217 110 q 275 86 246 96 q 335 77 303 77 q 417 92 378 77 q 483 138 455 107 q 528 216 511 169 q 544 327 544 263 z "},"q":{"ha":702,"x_min":57,"x_max":650,"o":"m 490 -279 q 504 -239 498 -265 q 511 -174 511 -214 l 511 81 q 409 9 461 26 q 307 -8 356 -8 q 208 14 254 -8 q 129 78 163 37 q 77 180 96 120 q 57 314 57 239 q 80 453 57 390 q 139 561 102 516 q 225 632 176 607 q 330 658 275 658 q 422 644 377 658 q 511 584 468 631 q 512 618 511 597 q 516 647 514 639 l 516 648 l 648 648 q 634 609 640 635 q 627 544 627 583 l 627 -174 q 635 -238 627 -211 q 650 -279 642 -265 l 490 -279 m 174 322 q 190 205 174 252 q 231 129 206 158 q 289 88 257 101 q 353 75 321 75 q 443 101 398 75 q 511 160 489 128 l 511 504 q 453 555 487 536 q 372 573 418 573 q 233 511 291 573 q 174 322 176 449 z "},"r":{"ha":455,"x_min":78,"x_max":452,"o":"m 407 658 q 425 656 415 658 q 444 653 434 655 l 452 551 q 413 568 434 562 q 369 575 391 575 q 283 555 316 575 q 219 503 251 535 l 219 105 q 224 38 219 64 q 238 0 230 13 l 78 0 q 94 39 86 14 q 102 105 102 64 l 102 544 q 95 610 102 584 q 80 648 88 635 l 211 648 q 216 617 214 634 q 219 576 219 600 q 312 642 263 626 q 407 658 361 658 z "},"s":{"ha":541,"x_min":64,"x_max":496,"o":"m 380 168 q 342 227 380 204 q 254 275 305 249 q 188 305 222 289 q 126 343 153 321 q 81 396 99 366 q 64 469 64 426 q 83 550 64 514 q 135 610 102 586 q 212 647 168 634 q 308 659 257 659 q 398 649 356 659 q 468 627 441 639 l 468 540 q 400 571 441 559 q 318 583 359 583 q 220 559 259 583 q 180 489 180 535 q 218 429 180 452 q 307 382 255 405 q 374 350 340 367 q 434 311 407 334 q 479 258 461 289 q 496 184 496 227 q 477 101 496 137 q 422 41 457 65 q 342 3 388 16 q 246 -10 297 -10 q 151 1 200 -10 q 73 22 102 11 l 67 126 q 148 84 101 102 q 243 65 196 65 q 343 93 307 65 q 380 168 380 120 z "},"t":{"ha":473,"x_min":14,"x_max":463,"o":"m 412 580 l 236 580 l 236 220 q 270 110 236 145 q 358 75 303 75 q 413 87 385 75 q 463 117 442 99 l 463 43 q 398 7 434 22 q 303 -8 362 -8 q 164 52 208 -8 q 120 209 120 112 l 120 580 l 14 580 l 14 648 l 120 648 l 120 789 q 180 805 147 792 q 236 830 214 817 l 236 648 l 412 648 l 412 580 z "},"u":{"ha":712,"x_min":77,"x_max":648,"o":"m 216 220 q 245 113 216 153 q 326 73 275 73 q 421 92 377 73 q 509 147 466 110 l 509 544 q 502 611 509 586 q 487 648 495 635 l 648 648 q 633 609 640 634 q 626 544 626 584 l 626 105 q 632 38 626 64 q 647 0 639 13 l 516 0 q 512 38 514 14 q 509 78 509 61 q 398 14 458 35 q 287 -8 337 -8 q 192 10 228 -8 q 134 60 155 29 q 106 129 113 91 q 99 209 99 168 l 99 544 q 92 611 99 586 q 77 648 85 635 l 238 648 q 223 609 230 634 q 216 544 216 584 l 216 220 z "},"v":{"ha":655,"x_min":29,"x_max":635,"o":"m 291 0 q 289 3 289 2 q 272 44 284 14 q 236 135 260 73 q 175 296 212 196 q 83 548 137 396 q 54 611 67 587 q 29 648 42 635 l 193 648 q 192 605 188 635 q 209 540 196 575 l 353 158 l 498 540 q 516 611 516 586 q 512 648 516 635 l 635 648 q 609 609 623 635 q 581 548 595 583 q 523 386 549 457 q 475 259 496 314 q 436 160 453 203 q 404 81 418 117 l 370 0 l 291 0 z "},"w":{"ha":993,"x_min":26,"x_max":980,"o":"m 651 0 q 639 42 648 14 q 613 119 631 69 q 568 244 595 169 q 503 429 541 319 l 354 0 l 276 0 q 273 10 276 0 q 260 47 270 19 q 233 124 251 75 q 187 252 216 172 q 140 382 168 310 q 80 548 113 453 q 52 611 65 587 q 26 648 38 635 l 198 648 q 196 632 196 642 q 195 605 195 623 q 204 540 195 578 l 335 145 q 374 267 353 203 q 418 396 396 330 q 462 526 441 461 q 503 648 484 591 l 546 648 l 712 147 l 845 540 q 856 615 856 583 q 852 648 856 640 l 980 648 q 953 609 967 635 q 926 548 939 583 l 733 0 l 651 0 z "},"x":{"ha":640,"x_min":42,"x_max":608,"o":"m 375 337 l 528 99 q 572 38 551 62 q 608 0 592 13 l 433 0 q 430 43 436 14 q 398 112 425 72 l 314 243 l 227 112 q 199 42 201 70 q 201 0 196 14 l 46 0 q 86 39 64 14 q 133 99 109 64 l 273 310 q 197 430 236 369 q 121 551 158 492 q 78 612 99 589 q 42 648 57 635 l 217 648 q 219 607 214 635 q 251 536 223 580 l 334 404 q 378 470 353 431 q 421 536 402 509 q 451 605 449 578 q 449 648 453 632 l 603 648 q 563 608 586 634 q 517 551 540 583 l 375 337 z "},"y":{"ha":653,"x_min":29,"x_max":635,"o":"m 126 -276 q 73 -254 94 -276 q 51 -203 53 -231 q 69 -206 59 -206 q 86 -206 78 -206 q 202 -154 145 -206 q 292 10 259 -102 l 284 24 q 262 77 276 42 q 223 172 247 112 q 165 324 200 233 q 83 548 131 415 q 54 611 67 587 q 29 648 42 635 l 193 648 q 190 607 188 635 q 209 538 192 580 l 361 155 l 500 540 l 498 540 q 516 611 516 586 q 512 648 516 635 l 635 648 q 609 609 623 635 q 581 548 595 583 q 513 360 543 441 q 461 218 484 279 q 420 112 437 156 q 388 34 402 67 l 375 2 l 377 3 q 309 -138 342 -83 q 245 -223 276 -193 q 184 -265 214 -254 q 126 -276 155 -276 z "},"z":{"ha":525,"x_min":34,"x_max":509,"o":"m 35 65 l 160 260 q 223 360 190 308 q 284 457 255 412 q 334 535 313 501 q 364 578 356 568 l 182 578 q 90 572 123 578 q 35 548 57 565 q 37 600 35 580 q 38 648 38 621 l 509 648 l 509 595 q 468 528 498 576 q 398 421 437 481 q 318 298 359 361 q 243 184 276 235 l 169 70 l 362 70 q 453 76 418 70 q 509 99 487 81 q 508 47 509 67 q 506 0 506 27 l 34 0 l 35 65 z "},"{":{"ha":463,"x_min":35,"x_max":421,"o":"m 239 -83 q 261 -162 241 -134 q 329 -190 281 -190 q 382 -189 359 -190 q 421 -182 404 -188 q 418 -216 418 -200 q 417 -244 418 -231 l 254 -244 q 208 -236 231 -244 q 166 -211 185 -228 q 135 -167 147 -193 q 123 -107 123 -140 l 123 233 q 117 257 121 243 q 101 284 112 271 q 73 307 89 297 q 35 319 57 316 l 35 372 q 83 383 65 374 q 109 406 101 393 q 121 435 118 420 q 123 463 123 450 l 123 800 q 135 860 123 833 q 166 903 147 886 q 208 928 185 920 q 254 937 231 937 l 417 937 q 418 904 417 920 q 421 873 420 889 q 390 880 412 878 q 329 883 369 883 q 264 857 289 883 q 239 761 239 832 l 239 468 q 234 436 239 453 q 219 402 228 418 q 195 370 209 385 q 164 350 180 356 q 220 303 201 334 q 239 246 239 271 l 239 -83 z "},"|":{"ha":257,"x_min":88,"x_max":171,"o":"m 88 -246 l 88 967 l 171 967 l 171 -246 l 88 -246 z "},"}":{"ha":463,"x_min":37,"x_max":425,"o":"m 220 246 q 239 303 220 271 q 294 350 259 334 q 263 370 276 356 q 239 402 249 385 q 225 436 230 418 q 220 468 220 453 l 220 761 q 196 857 220 832 q 131 883 171 883 q 69 880 89 883 q 37 875 48 878 l 43 937 l 206 937 q 250 928 227 937 q 292 903 273 920 q 324 860 311 886 q 337 800 337 833 l 337 463 q 341 437 337 452 q 354 409 345 423 q 381 386 364 396 q 425 372 398 375 l 425 319 q 386 307 402 316 q 359 284 370 297 q 343 257 348 271 q 337 233 338 243 l 337 -107 q 325 -167 337 -140 q 294 -211 313 -193 q 251 -236 275 -228 q 206 -244 228 -244 l 43 -244 q 40 -213 40 -227 q 38 -182 40 -200 q 78 -189 56 -188 q 131 -190 101 -190 q 199 -162 179 -190 q 220 -83 219 -134 l 220 246 z "},"~":{"ha":559,"x_min":27,"x_max":544,"o":"m 409 367 q 325 381 362 367 q 254 407 287 394 q 202 427 227 418 q 155 436 177 436 q 107 420 131 436 q 75 367 83 404 l 27 367 q 72 470 35 439 q 160 501 109 501 q 256 488 214 501 q 330 460 299 474 q 378 441 358 450 q 418 433 399 433 q 462 451 439 433 q 495 501 485 469 l 544 501 q 498 398 536 429 q 409 367 460 367 z "},"¡":{"ha":307,"x_min":70,"x_max":249,"o":"m 88 -294 l 231 -294 q 230 -227 231 -263 q 228 -163 228 -192 l 182 390 l 137 390 l 91 -163 l 88 -294 m 70 580 q 96 520 70 543 q 160 498 121 498 q 223 520 198 498 q 249 580 249 543 q 223 638 249 616 q 160 659 198 659 q 96 638 121 659 q 70 580 70 616 z "},"¢":{"ha":576,"x_min":40,"x_max":549,"o":"m 160 314 q 220 129 160 200 q 380 59 279 59 q 471 77 425 59 q 549 123 517 94 q 548 77 549 93 q 546 34 546 61 q 467 4 524 18 q 343 -10 410 -10 q 224 12 279 -10 q 129 75 169 34 q 64 176 88 117 q 40 314 40 236 q 65 457 40 394 q 135 564 91 520 q 236 630 179 607 q 356 653 294 653 q 405 651 380 653 q 456 643 431 648 q 502 633 481 639 q 538 623 524 627 l 538 532 q 469 567 511 552 q 380 581 428 581 q 220 509 279 581 q 160 314 160 437 m 359 792 l 423 792 q 382 326 402 554 q 343 -140 362 97 l 279 -140 l 359 792 z "},"£":{"ha":663,"x_min":62,"x_max":618,"o":"m 62 466 l 163 466 q 118 566 139 514 q 97 685 97 618 q 119 790 97 742 q 178 874 140 838 q 267 930 216 910 q 380 950 319 950 q 519 936 465 950 q 607 902 573 921 l 607 798 q 526 848 576 827 q 415 870 476 870 q 273 817 319 870 q 227 688 227 765 q 242 581 227 631 q 275 487 257 532 l 278 466 l 508 466 l 508 398 l 307 398 q 317 350 313 374 q 321 310 321 327 q 318 259 321 283 q 304 208 314 235 q 275 152 294 182 q 227 86 257 123 l 474 86 q 563 96 530 86 q 618 126 595 105 q 615 89 616 104 q 612 61 613 75 q 610 34 611 48 q 607 0 608 21 l 81 0 q 82 34 81 19 q 83 65 83 48 q 180 184 150 125 q 211 303 211 243 q 205 350 211 326 q 192 398 200 375 l 62 398 l 62 466 z "},"¥":{"ha":829,"x_min":26,"x_max":813,"o":"m 327 433 l 101 835 q 60 892 80 867 q 26 934 40 916 q 85 935 57 934 q 137 936 112 936 q 188 936 163 936 q 246 937 214 937 q 239 896 239 923 q 243 864 239 881 q 260 825 247 848 l 460 481 l 640 825 q 657 864 653 848 q 661 896 661 881 q 653 937 661 921 l 813 937 q 774 894 795 920 q 736 835 754 868 l 517 433 l 682 433 l 682 366 l 481 366 l 481 270 l 682 270 l 682 203 l 481 203 l 481 137 q 493 51 481 85 q 517 0 506 18 l 327 0 q 353 52 340 18 q 366 137 366 86 l 366 203 l 153 203 l 153 270 l 366 270 l 366 366 l 153 366 l 153 433 l 327 433 z "},"¦":{"ha":257,"x_min":88,"x_max":171,"o":"m 88 -246 l 88 292 l 171 292 l 171 -246 l 88 -246 m 171 431 l 88 431 l 88 967 l 171 967 l 171 431 z "},"§":{"ha":631,"x_min":21,"x_max":607,"o":"m 405 64 q 361 130 405 99 q 257 193 316 161 q 176 241 219 216 q 100 298 134 267 q 43 365 65 329 q 21 444 21 401 q 59 553 21 504 q 171 618 97 602 q 112 685 129 655 q 94 760 94 715 q 116 840 94 805 q 174 899 137 875 q 258 935 211 923 q 356 947 305 947 q 443 938 404 947 q 508 916 482 929 q 504 880 504 897 q 503 845 504 862 q 440 875 479 862 q 359 888 401 888 q 304 880 330 888 q 257 857 278 872 q 224 824 236 843 q 212 784 212 805 q 225 749 212 765 q 259 717 238 733 q 307 686 279 701 q 366 655 335 670 q 449 608 405 632 q 526 556 492 584 q 583 492 560 527 q 607 412 607 457 q 598 349 607 380 q 572 292 589 318 q 526 249 554 267 q 460 228 498 231 q 513 161 503 192 q 524 86 524 131 q 500 4 524 40 q 440 -56 477 -32 q 354 -93 402 -80 q 255 -105 307 -105 q 162 -95 209 -105 q 88 -73 115 -85 q 89 -30 88 -51 q 91 13 89 -8 q 168 -30 123 -11 q 259 -48 212 -48 q 364 -15 322 -48 q 405 64 405 18 m 506 380 q 490 421 506 401 q 448 459 474 441 q 389 494 421 477 q 322 528 356 511 l 247 565 q 201 569 223 573 q 161 552 179 565 q 133 520 144 540 q 123 479 123 501 q 140 441 123 460 q 183 402 156 421 q 242 363 209 383 q 310 324 275 343 l 382 284 q 429 280 407 275 q 469 301 452 286 q 496 337 485 316 q 506 380 506 358 z "},"¨":{"ha":544,"x_min":69,"x_max":476,"o":"m 69 852 q 90 912 69 889 q 142 936 112 936 q 195 912 174 936 q 216 852 216 889 q 195 794 216 816 q 142 773 174 773 q 90 794 112 773 q 69 852 69 816 m 329 852 q 350 912 329 889 q 402 936 372 936 q 455 912 434 936 q 476 852 476 889 q 455 794 476 816 q 402 773 434 773 q 350 794 372 773 q 329 852 329 816 z "},"©":{"ha":987,"x_min":38,"x_max":961,"o":"m 38 463 q 75 670 38 580 q 175 822 112 760 q 322 917 238 884 q 498 950 405 950 q 678 917 594 950 q 826 822 763 884 q 925 670 889 760 q 961 463 961 580 q 925 267 961 354 q 826 117 889 179 q 678 23 763 56 q 498 -10 594 -10 q 322 23 405 -10 q 175 117 238 56 q 75 267 112 179 q 38 463 38 354 m 118 463 q 146 295 118 370 q 225 164 174 219 q 346 80 276 110 q 501 49 417 49 q 656 80 586 49 q 777 164 726 110 q 854 295 827 219 q 881 463 881 370 q 854 639 881 560 q 777 772 827 717 q 656 856 726 827 q 501 886 586 886 q 346 856 417 886 q 225 772 276 827 q 146 639 174 717 q 118 463 118 560 m 350 466 q 402 296 350 356 q 533 236 453 236 q 603 246 568 236 q 664 278 639 255 l 664 214 q 601 188 639 196 q 519 180 564 180 q 421 200 468 180 q 340 257 375 220 q 283 347 305 294 q 262 466 262 401 q 284 591 262 536 q 343 684 307 647 q 427 742 380 722 q 522 761 474 761 q 603 753 570 761 q 658 733 637 744 l 658 666 q 607 696 637 688 q 532 704 576 704 q 398 643 447 704 q 350 466 350 583 z "},"ª":{"ha":461,"x_min":43,"x_max":415,"o":"m 326 811 q 298 888 326 860 q 217 915 270 915 q 145 904 176 915 q 93 878 115 892 l 93 937 q 154 954 117 945 q 227 963 192 963 q 295 955 263 963 q 351 928 327 947 q 389 877 375 908 q 402 801 402 846 l 402 564 q 406 520 402 538 q 415 490 410 501 l 330 490 q 326 532 326 504 q 259 495 295 506 q 184 484 223 484 q 84 517 125 484 q 43 607 43 551 q 68 682 43 651 q 133 734 93 714 q 223 763 172 754 q 326 774 273 773 l 326 811 m 121 616 q 152 552 121 572 q 220 533 184 533 q 280 545 252 533 q 326 575 308 557 l 326 734 q 256 728 292 734 q 190 707 220 722 q 140 670 160 693 q 121 616 121 648 z "},"«":{"ha":813,"x_min":56,"x_max":763,"o":"m 405 683 l 405 605 l 168 423 q 286 334 223 382 q 405 243 348 286 l 405 166 q 231 279 313 227 q 56 391 148 330 l 56 457 l 405 683 m 763 683 l 763 605 l 525 423 q 643 334 581 382 q 763 243 706 286 l 763 166 q 589 279 672 227 q 415 391 506 330 l 415 457 l 763 683 z "},"¬":{"ha":706,"x_min":78,"x_max":635,"o":"m 78 482 l 635 482 l 635 198 l 554 198 l 554 398 l 78 398 l 78 482 z "},"­":{"ha":548,"x_min":78,"x_max":476,"o":"m 78 385 l 476 385 l 476 300 l 78 300 l 78 385 z "},"®":{"ha":987,"x_min":38,"x_max":961,"o":"m 38 463 q 75 670 38 580 q 175 822 112 760 q 322 917 238 884 q 498 950 405 950 q 678 917 594 950 q 826 822 763 884 q 925 670 889 760 q 961 463 961 580 q 925 267 961 354 q 826 117 889 179 q 678 23 763 56 q 498 -10 594 -10 q 322 23 405 -10 q 175 117 238 56 q 75 267 112 179 q 38 463 38 354 m 118 463 q 146 295 118 370 q 225 164 174 219 q 346 80 276 110 q 501 49 417 49 q 656 80 586 49 q 777 164 726 110 q 854 295 827 219 q 881 463 881 370 q 854 639 881 560 q 777 772 827 717 q 656 856 726 827 q 501 886 586 886 q 346 856 417 886 q 225 772 276 827 q 146 639 174 717 q 118 463 118 560 m 410 428 l 410 267 q 418 187 410 216 l 324 187 q 332 267 332 216 l 332 674 q 330 722 332 704 q 324 754 327 741 l 452 754 q 596 714 538 754 q 655 587 655 675 q 629 493 655 536 q 559 437 603 450 l 661 243 q 679 212 670 225 q 696 187 688 198 l 586 187 q 585 214 589 200 q 565 254 581 228 l 565 252 l 471 428 l 410 428 m 410 701 l 410 479 l 442 479 q 501 489 477 479 q 539 516 525 500 q 558 551 552 532 q 564 587 564 570 q 540 667 564 632 q 453 701 517 701 l 410 701 z "},"°":{"ha":487,"x_min":40,"x_max":449,"o":"m 40 741 q 56 835 40 793 q 100 904 72 876 q 165 947 128 932 q 246 963 203 963 q 324 947 287 963 q 389 904 361 932 q 433 835 417 876 q 449 741 449 793 q 433 655 449 693 q 389 589 417 616 q 324 548 361 562 q 246 533 287 533 q 165 548 203 533 q 100 589 128 562 q 56 655 72 616 q 40 741 40 693 m 113 741 q 148 630 113 675 q 244 584 184 584 q 340 630 305 584 q 375 741 375 675 q 340 860 375 813 q 244 907 305 907 q 148 859 184 907 q 113 741 113 811 z "},"±":{"ha":717,"x_min":78,"x_max":670,"o":"m 415 790 l 415 535 l 670 535 l 670 450 l 415 450 l 415 193 l 334 193 l 334 450 l 78 450 l 78 535 l 334 535 l 334 790 l 415 790 m 670 85 l 670 0 l 78 0 l 78 85 l 670 85 z "},"²":{"ha":369,"x_min":35,"x_max":326,"o":"m 319 832 q 312 793 319 813 q 284 742 305 773 q 225 660 263 710 q 125 532 187 610 l 249 532 q 300 540 286 532 q 326 565 314 548 l 319 479 l 35 479 l 37 525 q 112 623 75 576 q 178 708 148 669 q 226 779 208 747 q 244 835 244 811 q 223 881 244 859 q 158 904 203 904 q 95 889 121 904 q 59 854 69 875 l 59 928 q 105 945 77 937 q 176 953 133 953 q 279 919 238 953 q 319 832 319 884 z "},"³":{"ha":370,"x_min":49,"x_max":321,"o":"m 321 608 q 275 508 321 548 q 168 469 230 469 q 95 477 123 469 q 49 495 67 485 l 49 570 q 86 535 59 549 q 150 520 113 520 q 219 546 193 520 q 244 605 244 572 q 223 666 244 639 q 139 696 201 693 l 101 696 l 101 744 l 139 744 q 223 773 201 746 q 244 833 244 800 q 223 880 244 857 q 158 902 201 902 q 94 888 121 902 q 57 852 67 873 l 57 928 q 103 945 75 937 q 176 953 131 953 q 279 918 238 953 q 321 830 321 883 q 301 769 321 803 q 235 720 281 734 q 275 700 259 714 q 301 670 291 686 q 316 638 311 655 q 321 608 321 621 z "},"´":{"ha":335,"x_min":144,"x_max":426,"o":"m 289 934 q 354 936 326 934 q 402 939 380 937 q 426 943 423 940 q 405 888 426 916 q 354 836 383 860 q 294 790 326 811 q 239 757 262 769 l 144 747 q 184 787 161 763 q 228 837 208 811 q 266 889 249 864 q 289 934 283 915 z "},"µ":{"ha":712,"x_min":77,"x_max":645,"o":"m 99 540 q 91 602 97 575 q 77 643 85 629 l 238 643 q 223 604 230 629 q 216 540 216 580 l 216 219 q 244 113 216 153 q 324 73 273 73 q 419 91 375 73 q 506 145 463 109 l 506 540 q 500 606 506 581 q 485 643 493 631 l 645 643 q 630 604 637 629 q 623 540 623 580 l 623 104 q 629 38 623 64 q 643 0 635 13 l 512 0 q 508 34 511 13 q 506 73 506 56 q 403 11 455 30 q 302 -8 351 -8 q 261 -2 287 -8 q 217 11 235 3 l 217 -172 q 223 -239 217 -214 q 236 -276 228 -263 l 81 -276 q 97 -238 89 -262 q 104 -172 104 -214 l 99 540 z "},"¶":{"ha":734,"x_min":35,"x_max":691,"o":"m 481 880 l 481 -238 l 423 -238 l 423 375 l 354 375 q 116 445 196 375 q 35 647 35 516 q 117 871 35 805 q 354 937 198 937 l 691 937 l 691 -238 l 635 -238 l 635 880 l 481 880 z "},"·":{"ha":275,"x_min":70,"x_max":217,"o":"m 70 477 q 91 538 70 516 q 144 560 112 560 q 196 538 174 560 q 217 477 217 516 q 196 419 217 441 q 144 398 174 398 q 91 419 112 398 q 70 477 70 441 z "},"¸":{"ha":348,"x_min":53,"x_max":310,"o":"m 81 -148 q 110 -75 97 -109 q 131 -19 121 -46 q 144 18 140 8 q 164 10 147 16 q 196 2 182 5 q 180 -35 187 -18 q 169 -62 174 -49 q 163 -80 164 -75 l 160 -88 q 184 -89 160 -86 q 235 -105 208 -93 q 287 -143 263 -118 q 310 -211 310 -168 q 279 -314 310 -275 q 211 -375 249 -353 q 136 -405 172 -398 q 86 -415 99 -413 l 53 -385 q 137 -361 99 -378 q 196 -318 169 -346 q 223 -239 223 -289 q 212 -193 223 -211 q 184 -165 201 -176 q 146 -152 166 -155 q 107 -148 126 -148 l 81 -148 l 81 -148 z "},"¹":{"ha":367,"x_min":105,"x_max":255,"o":"m 105 875 l 212 940 l 236 940 q 233 868 233 937 l 233 551 q 243 498 233 516 q 255 479 254 481 l 142 479 q 154 496 144 479 q 164 551 164 514 l 164 813 q 164 842 164 833 q 157 853 163 851 q 140 852 152 856 q 105 843 128 848 l 105 875 z "},"º":{"ha":522,"x_min":40,"x_max":489,"o":"m 40 715 q 57 820 40 774 q 106 897 75 865 q 178 946 137 929 q 265 963 219 963 q 350 946 310 963 q 421 897 391 929 q 470 820 452 865 q 489 715 489 774 q 470 617 489 661 q 421 543 452 573 q 350 496 391 512 q 265 481 310 481 q 178 496 219 481 q 106 543 137 512 q 57 617 75 573 q 40 715 40 661 m 121 715 q 160 577 121 629 q 263 525 198 525 q 366 577 329 525 q 404 715 404 629 q 366 860 404 806 q 263 915 329 915 q 160 860 198 915 q 121 715 121 806 z "},"»":{"ha":813,"x_min":56,"x_max":763,"o":"m 763 457 l 763 391 l 415 164 l 415 243 l 653 423 q 535 514 597 466 q 415 605 473 562 l 415 683 l 763 457 m 405 457 l 405 391 l 56 164 l 56 243 l 294 423 q 176 514 238 466 q 56 605 113 562 l 56 683 l 405 457 z "},"¼":{"ha":880,"x_min":30,"x_max":837,"o":"m 136 0 l 30 0 q 43 18 35 6 q 72 59 51 29 q 133 148 93 89 q 243 308 172 206 q 418 564 313 410 q 675 940 524 718 l 785 940 l 136 0 m 70 875 l 177 940 l 201 940 q 198 868 198 937 l 198 551 q 208 498 198 516 q 220 479 219 481 l 107 479 q 119 496 109 479 q 129 551 129 514 l 129 813 q 129 842 129 833 q 122 853 128 851 q 105 852 117 856 q 70 843 93 848 l 70 875 m 832 129 l 766 129 l 766 70 q 777 19 766 37 q 789 0 787 2 l 675 0 q 687 18 677 0 q 698 70 698 35 l 698 129 l 508 129 l 508 172 l 707 460 l 769 460 q 766 390 766 457 l 766 180 q 807 185 789 180 q 837 204 825 190 l 832 129 m 698 380 q 676 342 694 372 q 636 279 658 313 q 595 217 615 246 q 567 182 575 188 l 698 180 l 698 380 z "},"½":{"ha":880,"x_min":30,"x_max":835,"o":"m 136 0 l 30 0 q 43 18 35 6 q 72 59 51 29 q 133 148 93 89 q 243 308 172 206 q 418 564 313 410 q 675 940 524 718 l 785 940 l 136 0 m 829 353 q 821 314 829 334 q 793 263 814 294 q 734 181 773 231 q 634 53 696 131 l 758 53 q 809 61 795 53 q 835 86 824 69 l 829 0 l 544 0 l 546 46 q 621 144 584 97 q 687 229 658 190 q 735 300 717 268 q 754 356 754 332 q 733 402 754 380 q 667 425 712 425 q 604 410 631 425 q 568 375 578 396 l 568 449 q 614 466 586 458 q 685 474 642 474 q 788 440 747 474 q 829 353 829 405 m 70 875 l 177 940 l 201 940 q 198 868 198 937 l 198 551 q 208 498 198 516 q 220 479 219 481 l 107 479 q 119 496 109 479 q 129 551 129 514 l 129 813 q 129 842 129 833 q 122 853 128 851 q 105 852 117 856 q 70 843 93 848 l 70 875 z "},"¾":{"ha":880,"x_min":49,"x_max":837,"o":"m 168 0 l 62 0 q 75 18 67 6 q 104 59 83 29 q 164 148 125 89 q 275 308 204 206 q 450 564 345 410 q 707 940 556 718 l 817 940 l 168 0 m 832 129 l 766 129 l 766 70 q 777 19 766 37 q 789 0 787 2 l 675 0 q 687 18 677 0 q 698 70 698 35 l 698 129 l 508 129 l 508 172 l 707 460 l 769 460 q 766 390 766 457 l 766 180 q 807 185 789 180 q 837 204 825 190 l 832 129 m 698 380 q 676 342 694 372 q 636 279 658 313 q 595 217 615 246 q 567 182 575 188 l 698 180 l 698 380 m 321 608 q 275 508 321 548 q 168 469 230 469 q 95 477 123 469 q 49 495 67 485 l 49 570 q 86 535 59 549 q 150 520 113 520 q 219 546 193 520 q 244 605 244 572 q 223 666 244 639 q 139 696 201 693 l 101 696 l 101 744 l 139 744 q 223 773 201 746 q 244 833 244 800 q 223 880 244 857 q 158 902 201 902 q 94 888 121 902 q 57 852 67 873 l 57 928 q 103 945 75 937 q 176 953 131 953 q 279 918 238 953 q 321 830 321 883 q 301 769 321 803 q 235 720 281 734 q 275 700 259 714 q 301 670 291 686 q 316 638 311 655 q 321 608 321 621 z "},"¿":{"ha":578,"x_min":85,"x_max":560,"o":"m 433 361 q 421 275 433 313 q 393 205 410 236 q 354 148 375 174 q 310 97 332 121 q 243 16 271 56 q 214 -80 214 -24 q 221 -130 214 -105 q 244 -173 228 -155 q 287 -203 260 -192 q 353 -214 313 -214 q 466 -195 405 -214 q 560 -142 527 -176 l 560 -246 q 449 -281 514 -268 q 324 -294 385 -294 q 149 -234 214 -294 q 85 -70 85 -174 q 97 0 85 -32 q 130 59 110 32 q 175 110 150 86 q 223 156 200 134 q 315 247 275 198 q 356 361 356 297 l 356 396 l 433 396 l 433 361 m 484 586 q 458 527 484 549 q 394 504 433 504 q 330 527 356 504 q 305 586 305 549 q 330 644 305 623 q 394 666 356 666 q 458 644 433 666 q 484 586 484 623 z "},"À":{"ha":921,"x_min":35,"x_max":907,"o":"m 619 337 l 275 337 l 208 140 l 209 140 q 198 101 201 118 q 195 72 195 85 q 202 30 195 46 q 217 2 209 13 q 124 1 164 2 q 35 0 83 0 q 75 52 53 18 q 115 134 97 86 l 345 795 l 343 793 q 358 860 358 822 q 353 900 358 880 q 332 937 348 920 l 525 937 q 562 845 540 902 q 619 695 584 789 q 706 465 655 602 q 827 134 757 327 q 869 50 848 83 q 907 0 891 18 l 685 0 q 698 26 693 10 q 702 65 702 43 q 688 140 702 94 l 619 337 m 300 417 l 591 417 l 442 821 l 300 417 m 385 1042 q 334 1074 366 1054 q 273 1118 303 1094 q 220 1172 243 1143 q 198 1231 198 1201 q 219 1226 200 1228 q 261 1223 238 1224 q 306 1221 284 1221 q 335 1221 327 1221 q 350 1179 338 1202 q 379 1132 362 1156 q 415 1085 396 1108 q 453 1044 434 1062 l 385 1042 l 385 1042 z "},"Á":{"ha":921,"x_min":35,"x_max":907,"o":"m 619 337 l 275 337 l 208 140 l 209 140 q 198 101 201 118 q 195 72 195 85 q 202 30 195 46 q 217 2 209 13 q 124 1 164 2 q 35 0 83 0 q 75 52 53 18 q 115 134 97 86 l 345 795 l 343 793 q 358 860 358 822 q 353 900 358 880 q 332 937 348 920 l 525 937 q 562 845 540 902 q 619 695 584 789 q 706 465 655 602 q 827 134 757 327 q 869 50 848 83 q 907 0 891 18 l 685 0 q 698 26 693 10 q 702 65 702 43 q 688 140 702 94 l 619 337 m 300 417 l 591 417 l 442 821 l 300 417 m 527 1221 q 592 1223 564 1221 q 639 1226 618 1224 q 664 1231 661 1228 q 643 1176 664 1204 q 592 1123 621 1148 q 532 1078 564 1098 q 477 1044 500 1057 l 382 1034 q 422 1074 399 1050 q 466 1125 445 1098 q 504 1177 487 1151 q 527 1221 520 1202 z "},"Â":{"ha":921,"x_min":35,"x_max":907,"o":"m 619 337 l 275 337 l 208 140 l 209 140 q 198 101 201 118 q 195 72 195 85 q 202 30 195 46 q 217 2 209 13 q 124 1 164 2 q 35 0 83 0 q 75 52 53 18 q 115 134 97 86 l 345 795 l 343 793 q 358 860 358 822 q 353 900 358 880 q 332 937 348 920 l 525 937 q 562 845 540 902 q 619 695 584 789 q 706 465 655 602 q 827 134 757 327 q 869 50 848 83 q 907 0 891 18 l 685 0 q 698 26 693 10 q 702 65 702 43 q 688 140 702 94 l 619 337 m 300 417 l 591 417 l 442 821 l 300 417 m 455 1221 l 504 1167 q 577 1090 540 1130 q 653 1012 615 1049 l 586 1012 q 520 1062 556 1034 q 447 1121 484 1090 q 374 1063 412 1092 q 307 1012 335 1034 l 239 1012 q 278 1050 255 1027 q 326 1102 300 1074 q 380 1161 353 1130 q 434 1221 407 1193 l 455 1221 z "},"Ã":{"ha":921,"x_min":35,"x_max":907,"o":"m 619 337 l 275 337 l 208 140 l 209 140 q 198 101 201 118 q 195 72 195 85 q 202 30 195 46 q 217 2 209 13 q 124 1 164 2 q 35 0 83 0 q 75 52 53 18 q 115 134 97 86 l 345 795 l 343 793 q 358 860 358 822 q 353 900 358 880 q 332 937 348 920 l 525 937 q 562 845 540 902 q 619 695 584 789 q 706 465 655 602 q 827 134 757 327 q 869 50 848 83 q 907 0 891 18 l 685 0 q 698 26 693 10 q 702 65 702 43 q 688 140 702 94 l 619 337 m 300 417 l 591 417 l 442 821 l 300 417 m 554 1030 q 497 1038 530 1030 q 442 1063 465 1046 q 402 1088 423 1078 q 359 1098 380 1098 q 314 1082 335 1098 q 284 1030 294 1065 l 236 1030 q 282 1133 244 1102 q 369 1164 319 1164 q 421 1155 391 1164 q 477 1129 452 1146 q 557 1100 512 1100 q 607 1116 584 1100 q 640 1164 631 1132 l 688 1164 q 643 1061 680 1092 q 554 1030 605 1030 z "},"Ä":{"ha":921,"x_min":35,"x_max":907,"o":"m 619 337 l 275 337 l 208 140 l 209 140 q 198 101 201 118 q 195 72 195 85 q 202 30 195 46 q 217 2 209 13 q 124 1 164 2 q 35 0 83 0 q 75 52 53 18 q 115 134 97 86 l 345 795 l 343 793 q 358 860 358 822 q 353 900 358 880 q 332 937 348 920 l 525 937 q 562 845 540 902 q 619 695 584 789 q 706 465 655 602 q 827 134 757 327 q 869 50 848 83 q 907 0 891 18 l 685 0 q 698 26 693 10 q 702 65 702 43 q 688 140 702 94 l 619 337 m 300 417 l 591 417 l 442 821 l 300 417 m 243 1124 q 264 1184 243 1161 q 316 1207 286 1207 q 369 1184 348 1207 q 390 1124 390 1161 q 369 1066 390 1087 q 316 1044 348 1044 q 264 1066 286 1044 q 243 1124 243 1087 m 503 1124 q 524 1184 503 1161 q 576 1207 546 1207 q 629 1184 608 1207 q 650 1124 650 1161 q 629 1066 650 1087 q 576 1044 608 1044 q 524 1066 546 1044 q 503 1124 503 1087 z "},"Å":{"ha":921,"x_min":35,"x_max":907,"o":"m 619 337 l 275 337 l 208 140 l 209 140 q 198 101 201 118 q 195 72 195 85 q 202 30 195 46 q 217 2 209 13 q 124 1 164 2 q 35 0 83 0 q 75 52 53 18 q 115 134 97 86 l 345 795 l 343 793 q 358 860 358 822 q 353 900 358 880 q 332 937 348 920 l 525 937 q 562 845 540 902 q 619 695 584 789 q 706 465 655 602 q 827 134 757 327 q 869 50 848 83 q 907 0 891 18 l 685 0 q 698 26 693 10 q 702 65 702 43 q 688 140 702 94 l 619 337 m 300 417 l 591 417 l 442 821 l 300 417 m 321 1121 q 353 1198 321 1165 q 431 1231 385 1231 q 508 1198 476 1231 q 540 1121 540 1165 q 508 1042 540 1074 q 431 1009 476 1009 q 353 1042 385 1009 q 321 1121 321 1074 m 354 1121 q 377 1067 354 1089 q 431 1046 399 1046 q 484 1067 461 1046 q 506 1121 506 1089 q 484 1173 506 1151 q 431 1196 461 1196 q 377 1173 399 1196 q 354 1121 354 1151 z "},"Æ":{"ha":1135,"x_min":37,"x_max":1110,"o":"m 1103 0 l 594 0 q 619 52 607 18 q 631 137 631 86 l 631 337 l 332 337 l 231 142 q 211 91 217 115 q 204 51 204 67 q 208 21 204 32 q 217 2 211 10 q 125 1 166 2 q 37 0 85 0 q 83 49 56 18 q 136 133 110 81 l 481 793 q 499 835 492 811 q 506 883 506 859 q 503 911 506 897 q 492 937 500 924 l 1103 937 l 1110 814 q 1056 842 1089 833 q 967 851 1023 851 l 747 851 l 747 524 l 971 524 q 1034 533 1009 524 q 1074 554 1060 543 q 1075 481 1074 512 q 1076 412 1076 450 q 1034 433 1060 423 q 971 444 1007 444 l 747 444 l 747 86 l 967 86 q 1055 96 1023 86 q 1108 126 1087 105 l 1103 0 m 370 417 l 631 417 l 631 851 l 597 851 l 370 417 z "},"Ç":{"ha":782,"x_min":34,"x_max":754,"o":"m 179 463 q 207 303 179 375 q 282 177 235 230 q 389 96 329 125 q 514 67 449 67 q 647 87 581 67 q 754 152 712 107 l 754 45 q 637 5 707 19 q 490 -10 567 -10 q 318 23 401 -10 q 172 117 236 56 q 71 267 109 179 q 34 463 34 354 q 73 670 34 580 q 178 822 113 760 q 326 917 243 884 q 495 950 409 950 q 647 936 586 950 q 744 902 707 921 l 744 797 q 511 870 677 870 q 382 841 442 870 q 276 759 321 813 q 205 631 231 706 q 179 463 179 556 m 370 -148 q 399 -75 386 -109 q 420 -19 410 -46 q 433 18 429 8 q 453 10 436 16 q 485 2 471 5 q 469 -35 476 -18 q 458 -62 463 -49 q 452 -80 453 -75 l 449 -88 q 473 -89 449 -86 q 524 -105 496 -93 q 576 -143 552 -118 q 599 -211 599 -168 q 568 -314 599 -275 q 500 -375 538 -353 q 425 -405 461 -398 q 375 -415 388 -413 l 342 -385 q 426 -361 388 -378 q 485 -318 458 -346 q 512 -239 512 -289 q 501 -193 512 -211 q 473 -165 490 -176 q 435 -152 455 -155 q 396 -148 415 -148 l 370 -148 l 370 -148 z "},"È":{"ha":615,"x_min":64,"x_max":580,"o":"m 573 0 l 64 0 q 89 52 77 18 q 101 137 101 86 l 101 800 q 89 886 101 852 q 64 937 77 920 l 573 937 l 580 814 q 526 842 559 833 q 437 851 493 851 l 217 851 l 217 524 l 441 524 q 504 533 479 524 q 544 554 530 543 q 545 481 544 512 q 546 412 546 450 q 504 433 530 423 q 441 444 477 444 l 217 444 l 217 86 l 437 86 q 525 96 493 86 q 578 126 557 105 l 573 0 m 327 1042 q 277 1074 308 1054 q 216 1118 246 1094 q 163 1172 185 1143 q 140 1231 140 1201 q 161 1226 142 1228 q 204 1223 180 1224 q 248 1221 227 1221 q 278 1221 270 1221 q 293 1179 281 1202 q 322 1132 305 1156 q 358 1085 338 1108 q 396 1044 377 1062 l 327 1042 l 327 1042 z "},"É":{"ha":615,"x_min":64,"x_max":580,"o":"m 573 0 l 64 0 q 89 52 77 18 q 101 137 101 86 l 101 800 q 89 886 101 852 q 64 937 77 920 l 573 937 l 580 814 q 526 842 559 833 q 437 851 493 851 l 217 851 l 217 524 l 441 524 q 504 533 479 524 q 544 554 530 543 q 545 481 544 512 q 546 412 546 450 q 504 433 530 423 q 441 444 477 444 l 217 444 l 217 86 l 437 86 q 525 96 493 86 q 578 126 557 105 l 573 0 m 390 1221 q 455 1223 426 1221 q 502 1226 481 1224 q 527 1231 524 1228 q 505 1176 527 1204 q 455 1123 484 1148 q 394 1078 426 1098 q 340 1044 362 1057 l 244 1034 q 285 1074 262 1050 q 329 1125 308 1098 q 366 1177 350 1151 q 390 1221 383 1202 z "},"Ê":{"ha":615,"x_min":64,"x_max":580,"o":"m 573 0 l 64 0 q 89 52 77 18 q 101 137 101 86 l 101 800 q 89 886 101 852 q 64 937 77 920 l 573 937 l 580 814 q 526 842 559 833 q 437 851 493 851 l 217 851 l 217 524 l 441 524 q 504 533 479 524 q 544 554 530 543 q 545 481 544 512 q 546 412 546 450 q 504 433 530 423 q 441 444 477 444 l 217 444 l 217 86 l 437 86 q 525 96 493 86 q 578 126 557 105 l 573 0 m 318 1237 l 367 1183 q 440 1106 402 1146 q 516 1028 477 1065 l 449 1028 q 382 1078 418 1050 q 310 1137 346 1106 q 236 1079 275 1108 q 169 1028 198 1050 l 102 1028 q 140 1066 118 1042 q 189 1118 163 1090 q 243 1177 216 1146 q 297 1237 270 1208 l 318 1237 z "},"Ë":{"ha":615,"x_min":64,"x_max":580,"o":"m 573 0 l 64 0 q 89 52 77 18 q 101 137 101 86 l 101 800 q 89 886 101 852 q 64 937 77 920 l 573 937 l 580 814 q 526 842 559 833 q 437 851 493 851 l 217 851 l 217 524 l 441 524 q 504 533 479 524 q 544 554 530 543 q 545 481 544 512 q 546 412 546 450 q 504 433 530 423 q 441 444 477 444 l 217 444 l 217 86 l 437 86 q 525 96 493 86 q 578 126 557 105 l 573 0 m 121 1124 q 143 1184 121 1161 q 195 1207 164 1207 q 247 1184 227 1207 q 268 1124 268 1161 q 247 1066 268 1087 q 195 1044 227 1044 q 143 1066 164 1044 q 121 1124 121 1087 m 382 1124 q 403 1184 382 1161 q 455 1207 425 1207 q 508 1184 487 1207 q 528 1124 528 1161 q 508 1066 528 1087 q 455 1044 487 1044 q 403 1066 425 1044 q 382 1124 382 1087 z "},"Ì":{"ha":308,"x_min":-61,"x_max":254,"o":"m 219 137 q 231 51 219 85 q 254 0 243 18 l 65 0 q 90 52 78 18 q 102 137 102 86 l 102 800 q 90 886 102 852 q 65 937 78 920 l 252 937 q 230 883 241 918 q 219 800 219 848 l 219 137 m 126 1027 q 76 1058 107 1038 q 14 1102 45 1078 q -38 1156 -16 1127 q -61 1215 -61 1185 q -40 1210 -59 1212 q 2 1207 -21 1208 q 47 1205 26 1205 q 77 1205 69 1205 q 92 1163 80 1186 q 121 1116 104 1140 q 156 1069 137 1092 q 195 1028 176 1046 l 126 1027 l 126 1027 z "},"Í":{"ha":308,"x_min":65,"x_max":370,"o":"m 219 137 q 231 51 219 85 q 254 0 243 18 l 65 0 q 90 52 78 18 q 102 137 102 86 l 102 800 q 90 886 102 852 q 65 937 78 920 l 252 937 q 230 883 241 918 q 219 800 219 848 l 219 137 m 233 1205 q 299 1207 270 1205 q 346 1210 324 1208 q 370 1215 367 1212 q 349 1160 370 1188 q 299 1107 327 1132 q 238 1062 270 1082 q 184 1028 206 1041 l 88 1019 q 129 1058 105 1034 q 172 1109 152 1082 q 210 1161 193 1135 q 233 1205 227 1186 z "},"Î":{"ha":308,"x_min":-49,"x_max":364,"o":"m 219 137 q 231 51 219 85 q 254 0 243 18 l 65 0 q 90 52 78 18 q 102 137 102 86 l 102 800 q 90 886 102 852 q 65 937 78 920 l 252 937 q 230 883 241 918 q 219 800 219 848 l 219 137 m 166 1237 l 216 1183 q 288 1106 251 1146 q 364 1028 326 1065 l 297 1028 q 231 1078 267 1050 q 158 1137 195 1106 q 85 1079 123 1108 q 18 1028 46 1050 l -49 1028 q -11 1066 -34 1042 q 38 1118 11 1090 q 91 1177 64 1146 q 145 1237 118 1208 l 166 1237 z "},"Ï":{"ha":308,"x_min":-46,"x_max":361,"o":"m 219 137 q 231 51 219 85 q 254 0 243 18 l 65 0 q 90 52 78 18 q 102 137 102 86 l 102 800 q 90 886 102 852 q 65 937 78 920 l 252 937 q 230 883 241 918 q 219 800 219 848 l 219 137 m -46 1124 q -25 1184 -46 1161 q 27 1207 -3 1207 q 80 1184 59 1207 q 101 1124 101 1161 q 80 1066 101 1087 q 27 1044 59 1044 q -25 1066 -3 1044 q -46 1124 -46 1087 m 214 1124 q 235 1184 214 1161 q 287 1207 257 1207 q 340 1184 319 1207 q 361 1124 361 1161 q 340 1066 361 1087 q 287 1044 319 1044 q 235 1066 257 1044 q 214 1124 214 1087 z "},"Ð":{"ha":886,"x_min":30,"x_max":864,"o":"m 30 516 l 150 516 l 150 800 q 138 886 150 852 q 113 937 126 920 l 425 937 q 596 906 516 937 q 736 815 677 875 q 829 667 795 755 q 864 463 864 578 q 829 268 864 354 q 736 122 795 182 q 596 31 677 62 q 425 0 516 0 l 113 0 q 138 52 126 18 q 150 137 150 86 l 150 431 l 30 431 l 30 516 m 267 851 l 267 516 l 428 516 l 428 431 l 267 431 l 267 81 l 426 81 q 548 109 493 81 q 643 185 603 136 q 705 305 683 235 q 726 463 726 375 q 705 627 726 556 q 643 749 683 699 q 548 825 603 798 q 426 851 493 851 l 267 851 z "},"Ñ":{"ha":864,"x_min":57,"x_max":821,"o":"m 784 0 l 717 0 q 673 61 709 6 q 583 188 637 117 q 466 345 528 262 q 349 501 404 428 q 255 629 294 575 q 208 699 216 683 l 187 736 l 187 137 q 199 51 187 85 q 222 0 211 18 l 57 0 q 83 52 70 18 q 96 137 96 86 l 96 800 q 83 886 96 852 q 57 937 70 920 l 180 937 l 283 795 q 398 646 335 728 q 517 487 460 564 q 619 349 575 410 q 675 262 663 287 l 696 227 l 696 800 q 684 886 696 852 q 659 937 672 920 l 821 937 q 797 883 808 918 q 785 800 785 848 l 784 0 m 525 1030 q 469 1038 501 1030 q 413 1063 436 1046 q 373 1088 394 1078 q 330 1098 351 1098 q 286 1082 307 1098 q 255 1030 265 1065 l 208 1030 q 253 1133 216 1102 q 340 1164 291 1164 q 393 1155 362 1164 q 449 1129 423 1146 q 528 1100 484 1100 q 579 1116 556 1100 q 611 1164 602 1132 l 659 1164 q 614 1061 651 1092 q 525 1030 576 1030 z "},"Ò":{"ha":936,"x_min":34,"x_max":912,"o":"m 34 463 q 69 670 34 580 q 164 822 104 760 q 303 917 223 884 q 471 950 382 950 q 643 917 562 950 q 783 822 723 884 q 877 670 843 760 q 912 463 912 580 q 877 267 912 354 q 783 117 843 179 q 643 23 723 56 q 471 -10 562 -10 q 303 23 382 -10 q 164 117 223 56 q 69 267 104 179 q 34 463 34 354 m 169 463 q 192 303 169 375 q 255 180 214 231 q 350 100 295 128 q 473 72 405 72 q 595 100 540 72 q 690 180 651 128 q 752 303 730 231 q 774 463 774 375 q 752 630 774 556 q 690 756 730 704 q 595 836 651 808 q 473 864 540 864 q 350 836 405 864 q 255 756 295 808 q 192 630 214 704 q 169 463 169 556 m 423 1027 q 373 1058 404 1038 q 311 1102 342 1078 q 259 1156 281 1127 q 236 1215 236 1185 q 257 1210 238 1212 q 299 1207 276 1208 q 344 1205 322 1205 q 374 1205 366 1205 q 389 1163 377 1186 q 417 1116 401 1140 q 453 1069 434 1092 q 492 1028 473 1046 l 423 1027 l 423 1027 z "},"Ó":{"ha":936,"x_min":34,"x_max":912,"o":"m 34 463 q 69 670 34 580 q 164 822 104 760 q 303 917 223 884 q 471 950 382 950 q 643 917 562 950 q 783 822 723 884 q 877 670 843 760 q 912 463 912 580 q 877 267 912 354 q 783 117 843 179 q 643 23 723 56 q 471 -10 562 -10 q 303 23 382 -10 q 164 117 223 56 q 69 267 104 179 q 34 463 34 354 m 169 463 q 192 303 169 375 q 255 180 214 231 q 350 100 295 128 q 473 72 405 72 q 595 100 540 72 q 690 180 651 128 q 752 303 730 231 q 774 463 774 375 q 752 630 774 556 q 690 756 730 704 q 595 836 651 808 q 473 864 540 864 q 350 836 405 864 q 255 756 295 808 q 192 630 214 704 q 169 463 169 556 m 549 1205 q 615 1207 586 1205 q 662 1210 640 1208 q 686 1215 683 1212 q 665 1160 686 1188 q 615 1107 643 1132 q 554 1062 586 1082 q 500 1028 522 1041 l 404 1019 q 445 1058 421 1034 q 489 1109 468 1082 q 526 1161 509 1135 q 549 1205 543 1186 z "},"Ô":{"ha":936,"x_min":34,"x_max":912,"o":"m 34 463 q 69 670 34 580 q 164 822 104 760 q 303 917 223 884 q 471 950 382 950 q 643 917 562 950 q 783 822 723 884 q 877 670 843 760 q 912 463 912 580 q 877 267 912 354 q 783 117 843 179 q 643 23 723 56 q 471 -10 562 -10 q 303 23 382 -10 q 164 117 223 56 q 69 267 104 179 q 34 463 34 354 m 169 463 q 192 303 169 375 q 255 180 214 231 q 350 100 295 128 q 473 72 405 72 q 595 100 540 72 q 690 180 651 128 q 752 303 730 231 q 774 463 774 375 q 752 630 774 556 q 690 756 730 704 q 595 836 651 808 q 473 864 540 864 q 350 836 405 864 q 255 756 295 808 q 192 630 214 704 q 169 463 169 556 m 479 1221 l 528 1167 q 601 1090 564 1130 q 677 1012 639 1049 l 610 1012 q 544 1062 580 1034 q 471 1121 508 1090 q 398 1063 436 1092 q 330 1012 359 1034 l 263 1012 q 302 1050 279 1027 q 350 1102 324 1074 q 404 1161 377 1130 q 458 1221 431 1193 l 479 1221 z "},"Õ":{"ha":936,"x_min":34,"x_max":912,"o":"m 34 463 q 69 670 34 580 q 164 822 104 760 q 303 917 223 884 q 471 950 382 950 q 643 917 562 950 q 783 822 723 884 q 877 670 843 760 q 912 463 912 580 q 877 267 912 354 q 783 117 843 179 q 643 23 723 56 q 471 -10 562 -10 q 303 23 382 -10 q 164 117 223 56 q 69 267 104 179 q 34 463 34 354 m 169 463 q 192 303 169 375 q 255 180 214 231 q 350 100 295 128 q 473 72 405 72 q 595 100 540 72 q 690 180 651 128 q 752 303 730 231 q 774 463 774 375 q 752 630 774 556 q 690 756 730 704 q 595 836 651 808 q 473 864 540 864 q 350 836 405 864 q 255 756 295 808 q 192 630 214 704 q 169 463 169 556 m 562 1030 q 505 1038 538 1030 q 450 1063 473 1046 q 409 1088 431 1078 q 367 1098 388 1098 q 322 1082 343 1098 q 292 1030 302 1065 l 244 1030 q 290 1133 252 1102 q 377 1164 327 1164 q 429 1155 399 1164 q 485 1129 460 1146 q 565 1100 520 1100 q 615 1116 592 1100 q 648 1164 639 1132 l 696 1164 q 651 1061 688 1092 q 562 1030 613 1030 z "},"Ö":{"ha":936,"x_min":34,"x_max":912,"o":"m 34 463 q 69 670 34 580 q 164 822 104 760 q 303 917 223 884 q 471 950 382 950 q 643 917 562 950 q 783 822 723 884 q 877 670 843 760 q 912 463 912 580 q 877 267 912 354 q 783 117 843 179 q 643 23 723 56 q 471 -10 562 -10 q 303 23 382 -10 q 164 117 223 56 q 69 267 104 179 q 34 463 34 354 m 169 463 q 192 303 169 375 q 255 180 214 231 q 350 100 295 128 q 473 72 405 72 q 595 100 540 72 q 690 180 651 128 q 752 303 730 231 q 774 463 774 375 q 752 630 774 556 q 690 756 730 704 q 595 836 651 808 q 473 864 540 864 q 350 836 405 864 q 255 756 295 808 q 192 630 214 704 q 169 463 169 556 m 267 1124 q 288 1184 267 1161 q 340 1207 310 1207 q 393 1184 372 1207 q 413 1124 413 1161 q 393 1066 413 1087 q 340 1044 372 1044 q 288 1066 310 1044 q 267 1124 267 1087 m 527 1124 q 548 1184 527 1161 q 600 1207 570 1207 q 653 1184 632 1207 q 674 1124 674 1161 q 653 1066 674 1087 q 600 1044 632 1044 q 548 1066 570 1044 q 527 1124 527 1087 z "},"×":{"ha":717,"x_min":134,"x_max":613,"o":"m 613 605 l 433 423 l 613 243 l 556 184 l 374 366 l 193 184 l 134 243 l 316 423 l 134 605 l 193 663 l 374 482 l 556 663 l 613 605 z "},"Ø":{"ha":936,"x_min":34,"x_max":912,"o":"m 48 0 l 821 951 l 899 951 l 126 0 l 48 0 m 34 463 q 69 670 34 580 q 164 822 104 760 q 303 917 223 884 q 471 950 382 950 q 643 917 562 950 q 783 822 723 884 q 877 670 843 760 q 912 463 912 580 q 877 267 912 354 q 783 117 843 179 q 643 23 723 56 q 471 -10 562 -10 q 303 23 382 -10 q 164 117 223 56 q 69 267 104 179 q 34 463 34 354 m 169 463 q 192 303 169 375 q 255 180 214 231 q 350 100 295 128 q 473 72 405 72 q 595 100 540 72 q 690 180 651 128 q 752 303 730 231 q 774 463 774 375 q 752 630 774 556 q 690 756 730 704 q 595 836 651 808 q 473 864 540 864 q 350 836 405 864 q 255 756 295 808 q 192 630 214 704 q 169 463 169 556 z "},"Ù":{"ha":860,"x_min":62,"x_max":814,"o":"m 216 308 q 268 136 216 200 q 426 72 321 72 q 485 78 453 72 q 549 96 517 85 q 611 123 581 107 q 663 158 640 139 l 663 800 q 650 886 663 852 q 624 937 637 920 l 813 937 q 789 883 800 918 q 777 800 777 848 l 777 137 q 789 51 777 85 q 814 0 801 18 l 667 0 q 669 16 669 5 l 663 77 q 603 40 639 56 q 528 14 567 24 q 451 -3 489 3 q 388 -10 413 -10 q 251 14 307 -10 q 163 79 196 37 q 115 179 129 121 q 101 303 101 236 l 101 800 q 88 886 101 852 q 62 937 75 920 l 249 937 q 227 883 238 918 q 216 800 216 848 l 216 308 m 434 1027 q 384 1058 415 1038 q 322 1102 353 1078 q 270 1156 292 1127 q 247 1215 247 1185 q 268 1210 249 1212 q 311 1207 287 1208 q 355 1205 334 1205 q 385 1205 377 1205 q 400 1163 388 1186 q 429 1116 412 1140 q 465 1069 445 1092 q 503 1028 484 1046 l 434 1027 l 434 1027 z "},"Ú":{"ha":860,"x_min":62,"x_max":814,"o":"m 216 308 q 268 136 216 200 q 426 72 321 72 q 485 78 453 72 q 549 96 517 85 q 611 123 581 107 q 663 158 640 139 l 663 800 q 650 886 663 852 q 624 937 637 920 l 813 937 q 789 883 800 918 q 777 800 777 848 l 777 137 q 789 51 777 85 q 814 0 801 18 l 667 0 q 669 16 669 5 l 663 77 q 603 40 639 56 q 528 14 567 24 q 451 -3 489 3 q 388 -10 413 -10 q 251 14 307 -10 q 163 79 196 37 q 115 179 129 121 q 101 303 101 236 l 101 800 q 88 886 101 852 q 62 937 75 920 l 249 937 q 227 883 238 918 q 216 800 216 848 l 216 308 m 512 1205 q 578 1207 549 1205 q 625 1210 603 1208 q 650 1215 647 1212 q 628 1160 650 1188 q 578 1107 607 1132 q 517 1062 549 1082 q 463 1028 485 1041 l 367 1019 q 408 1058 385 1034 q 452 1109 431 1082 q 489 1161 473 1135 q 512 1205 506 1186 z "},"Û":{"ha":860,"x_min":62,"x_max":814,"o":"m 216 308 q 268 136 216 200 q 426 72 321 72 q 485 78 453 72 q 549 96 517 85 q 611 123 581 107 q 663 158 640 139 l 663 800 q 650 886 663 852 q 624 937 637 920 l 813 937 q 789 883 800 918 q 777 800 777 848 l 777 137 q 789 51 777 85 q 814 0 801 18 l 667 0 q 669 16 669 5 l 663 77 q 603 40 639 56 q 528 14 567 24 q 451 -3 489 3 q 388 -10 413 -10 q 251 14 307 -10 q 163 79 196 37 q 115 179 129 121 q 101 303 101 236 l 101 800 q 88 886 101 852 q 62 937 75 920 l 249 937 q 227 883 238 918 q 216 800 216 848 l 216 308 m 441 1237 l 490 1183 q 563 1106 525 1146 q 639 1028 600 1065 l 572 1028 q 505 1078 541 1050 q 433 1137 469 1106 q 359 1079 398 1108 q 292 1028 321 1050 l 225 1028 q 263 1066 241 1042 q 312 1118 286 1090 q 366 1177 338 1146 q 420 1237 393 1208 l 441 1237 z "},"Ü":{"ha":860,"x_min":62,"x_max":814,"o":"m 216 308 q 268 136 216 200 q 426 72 321 72 q 485 78 453 72 q 549 96 517 85 q 611 123 581 107 q 663 158 640 139 l 663 800 q 650 886 663 852 q 624 937 637 920 l 813 937 q 789 883 800 918 q 777 800 777 848 l 777 137 q 789 51 777 85 q 814 0 801 18 l 667 0 q 669 16 669 5 l 663 77 q 603 40 639 56 q 528 14 567 24 q 451 -3 489 3 q 388 -10 413 -10 q 251 14 307 -10 q 163 79 196 37 q 115 179 129 121 q 101 303 101 236 l 101 800 q 88 886 101 852 q 62 937 75 920 l 249 937 q 227 883 238 918 q 216 800 216 848 l 216 308 m 228 1124 q 250 1184 228 1161 q 302 1207 271 1207 q 354 1184 334 1207 q 375 1124 375 1161 q 354 1066 375 1087 q 302 1044 334 1044 q 250 1066 271 1044 q 228 1124 228 1087 m 489 1124 q 510 1184 489 1161 q 562 1207 532 1207 q 615 1184 594 1207 q 635 1124 635 1161 q 615 1066 635 1087 q 562 1044 594 1044 q 510 1066 532 1044 q 489 1124 489 1087 z "},"Ý":{"ha":829,"x_min":26,"x_max":813,"o":"m 481 369 l 481 137 q 493 51 481 85 q 517 0 506 18 l 327 0 q 353 52 340 18 q 366 137 366 86 l 366 369 l 101 835 q 60 892 80 867 q 26 934 40 916 q 85 935 57 934 q 137 936 112 936 q 188 936 163 936 q 246 937 214 937 q 239 896 239 923 q 243 864 239 881 q 260 825 247 848 l 460 481 l 640 825 q 657 864 653 848 q 661 896 661 881 q 653 937 661 921 l 813 937 q 774 894 795 920 q 736 835 754 868 l 481 369 m 493 1189 q 559 1191 530 1189 q 606 1194 584 1193 q 631 1199 627 1196 q 609 1144 631 1172 q 559 1091 587 1116 q 498 1046 530 1066 q 444 1012 466 1025 l 348 1003 q 389 1042 366 1019 q 433 1093 412 1066 q 470 1145 453 1119 q 493 1189 487 1170 z "},"Þ":{"ha":678,"x_min":64,"x_max":653,"o":"m 265 937 q 228 876 239 910 q 217 803 217 841 l 217 774 l 284 774 q 430 758 362 774 q 548 708 498 742 q 625 618 597 674 q 653 484 653 562 q 625 368 653 418 q 548 283 597 318 q 430 230 498 247 q 284 212 362 212 l 217 212 l 217 137 q 229 51 217 85 q 252 0 241 18 l 64 0 q 89 52 77 18 q 101 137 101 86 l 101 800 q 89 886 101 852 q 64 937 77 920 l 265 937 m 217 688 l 217 294 l 286 294 q 456 344 396 294 q 516 484 516 394 q 456 643 516 597 q 286 688 396 688 l 217 688 z "},"ß":{"ha":805,"x_min":27,"x_max":789,"o":"m 672 161 q 638 224 672 196 q 560 281 603 252 q 501 320 532 299 q 446 369 471 342 q 405 429 421 396 q 388 503 388 461 q 415 603 388 564 q 471 677 442 643 q 514 733 495 706 q 533 795 533 760 q 502 877 533 843 q 405 912 471 912 q 289 862 329 912 q 249 731 249 813 l 249 105 q 255 38 249 64 q 268 0 260 13 l 109 0 q 125 39 118 14 q 133 105 133 64 l 133 580 l 27 580 l 27 648 l 133 648 l 133 734 q 151 835 133 789 q 203 915 169 881 q 282 967 236 948 q 383 987 327 987 q 505 970 455 987 q 588 927 556 953 q 635 866 621 900 q 650 798 650 832 q 623 701 650 739 q 565 631 595 663 q 524 581 543 605 q 504 527 504 557 q 538 464 504 490 q 616 407 572 437 q 675 368 645 390 q 731 320 706 346 q 773 260 757 294 q 789 184 789 227 q 771 101 789 137 q 723 41 754 65 q 654 3 693 16 q 572 -10 615 -10 q 475 1 524 -10 q 399 22 426 11 l 391 126 q 473 84 425 102 q 567 65 520 65 q 642 89 611 65 q 672 161 672 113 z "},"à":{"ha":623,"x_min":42,"x_max":564,"o":"m 428 445 q 392 548 428 511 q 284 584 356 584 q 182 568 225 584 q 107 528 139 551 l 107 621 q 198 647 142 634 q 300 659 254 659 q 396 647 351 659 q 473 609 441 635 q 525 539 506 583 q 544 433 544 495 l 544 105 q 550 38 544 64 q 564 0 556 13 l 434 0 q 431 22 433 10 q 429 46 429 35 q 342 3 391 14 q 239 -8 294 -8 q 98 38 155 -8 q 42 163 42 85 q 75 269 42 225 q 164 341 109 313 q 287 382 219 369 q 428 399 356 396 l 428 445 m 158 177 q 199 92 158 118 q 291 65 239 65 q 370 82 334 65 q 428 121 405 99 l 428 337 q 335 328 383 337 q 248 300 287 319 q 184 251 209 281 q 158 177 158 220 m 267 755 q 216 786 247 766 q 155 831 185 806 q 102 884 125 856 q 80 943 80 913 q 101 939 81 940 q 143 936 120 937 q 188 934 166 934 q 217 934 209 934 q 232 892 220 915 q 261 845 244 868 q 297 797 278 821 q 335 757 316 774 l 267 755 l 267 755 z "},"á":{"ha":623,"x_min":42,"x_max":564,"o":"m 428 445 q 392 548 428 511 q 284 584 356 584 q 182 568 225 584 q 107 528 139 551 l 107 621 q 198 647 142 634 q 300 659 254 659 q 396 647 351 659 q 473 609 441 635 q 525 539 506 583 q 544 433 544 495 l 544 105 q 550 38 544 64 q 564 0 556 13 l 434 0 q 431 22 433 10 q 429 46 429 35 q 342 3 391 14 q 239 -8 294 -8 q 98 38 155 -8 q 42 163 42 85 q 75 269 42 225 q 164 341 109 313 q 287 382 219 369 q 428 399 356 396 l 428 445 m 158 177 q 199 92 158 118 q 291 65 239 65 q 370 82 334 65 q 428 121 405 99 l 428 337 q 335 328 383 337 q 248 300 287 319 q 184 251 209 281 q 158 177 158 220 m 345 934 q 410 936 382 934 q 457 939 436 937 q 482 943 479 940 q 461 888 482 916 q 410 836 439 860 q 350 790 382 811 q 295 757 318 769 l 200 747 q 240 787 217 763 q 284 837 263 811 q 322 889 305 864 q 345 934 338 915 z "},"â":{"ha":623,"x_min":42,"x_max":564,"o":"m 428 445 q 392 548 428 511 q 284 584 356 584 q 182 568 225 584 q 107 528 139 551 l 107 621 q 198 647 142 634 q 300 659 254 659 q 396 647 351 659 q 473 609 441 635 q 525 539 506 583 q 544 433 544 495 l 544 105 q 550 38 544 64 q 564 0 556 13 l 434 0 q 431 22 433 10 q 429 46 429 35 q 342 3 391 14 q 239 -8 294 -8 q 98 38 155 -8 q 42 163 42 85 q 75 269 42 225 q 164 341 109 313 q 287 382 219 369 q 428 399 356 396 l 428 445 m 158 177 q 199 92 158 118 q 291 65 239 65 q 370 82 334 65 q 428 121 405 99 l 428 337 q 335 328 383 337 q 248 300 287 319 q 184 251 209 281 q 158 177 158 220 m 307 966 l 356 912 q 429 834 391 875 q 504 757 466 793 l 437 757 q 371 807 407 779 q 299 865 335 835 q 225 808 263 837 q 158 757 187 779 l 91 757 q 129 795 107 771 q 178 847 152 819 q 231 906 204 875 q 286 966 259 937 l 307 966 z "},"ã":{"ha":623,"x_min":42,"x_max":564,"o":"m 428 445 q 392 548 428 511 q 284 584 356 584 q 182 568 225 584 q 107 528 139 551 l 107 621 q 198 647 142 634 q 300 659 254 659 q 396 647 351 659 q 473 609 441 635 q 525 539 506 583 q 544 433 544 495 l 544 105 q 550 38 544 64 q 564 0 556 13 l 434 0 q 431 22 433 10 q 429 46 429 35 q 342 3 391 14 q 239 -8 294 -8 q 98 38 155 -8 q 42 163 42 85 q 75 269 42 225 q 164 341 109 313 q 287 382 219 369 q 428 399 356 396 l 428 445 m 158 177 q 199 92 158 118 q 291 65 239 65 q 370 82 334 65 q 428 121 405 99 l 428 337 q 335 328 383 337 q 248 300 287 319 q 184 251 209 281 q 158 177 158 220 m 405 774 q 349 782 382 774 q 294 808 316 790 q 253 833 275 822 q 211 843 231 843 q 166 826 187 843 q 136 774 145 809 l 88 774 q 133 877 96 846 q 220 908 171 908 q 273 900 243 908 q 329 873 303 891 q 409 845 364 845 q 459 860 436 845 q 492 908 482 876 l 540 908 q 494 805 532 837 q 405 774 457 774 z "},"ä":{"ha":623,"x_min":42,"x_max":564,"o":"m 428 445 q 392 548 428 511 q 284 584 356 584 q 182 568 225 584 q 107 528 139 551 l 107 621 q 198 647 142 634 q 300 659 254 659 q 396 647 351 659 q 473 609 441 635 q 525 539 506 583 q 544 433 544 495 l 544 105 q 550 38 544 64 q 564 0 556 13 l 434 0 q 431 22 433 10 q 429 46 429 35 q 342 3 391 14 q 239 -8 294 -8 q 98 38 155 -8 q 42 163 42 85 q 75 269 42 225 q 164 341 109 313 q 287 382 219 369 q 428 399 356 396 l 428 445 m 158 177 q 199 92 158 118 q 291 65 239 65 q 370 82 334 65 q 428 121 405 99 l 428 337 q 335 328 383 337 q 248 300 287 319 q 184 251 209 281 q 158 177 158 220 m 110 852 q 132 912 110 889 q 184 936 153 936 q 236 912 216 936 q 257 852 257 889 q 236 794 257 816 q 184 773 216 773 q 132 794 153 773 q 110 852 110 816 m 370 852 q 392 912 370 889 q 444 936 413 936 q 496 912 476 936 q 517 852 517 889 q 496 794 517 816 q 444 773 476 773 q 392 794 413 773 q 370 852 370 816 z "},"å":{"ha":623,"x_min":42,"x_max":564,"o":"m 428 445 q 392 548 428 511 q 284 584 356 584 q 182 568 225 584 q 107 528 139 551 l 107 621 q 198 647 142 634 q 300 659 254 659 q 396 647 351 659 q 473 609 441 635 q 525 539 506 583 q 544 433 544 495 l 544 105 q 550 38 544 64 q 564 0 556 13 l 434 0 q 431 22 433 10 q 429 46 429 35 q 342 3 391 14 q 239 -8 294 -8 q 98 38 155 -8 q 42 163 42 85 q 75 269 42 225 q 164 341 109 313 q 287 382 219 369 q 428 399 356 396 l 428 445 m 158 177 q 199 92 158 118 q 291 65 239 65 q 370 82 334 65 q 428 121 405 99 l 428 337 q 335 328 383 337 q 248 300 287 319 q 184 251 209 281 q 158 177 158 220 m 204 849 q 236 927 204 894 q 314 959 268 959 q 391 927 359 959 q 423 849 423 894 q 391 770 423 803 q 314 738 359 738 q 236 770 268 738 q 204 849 204 803 m 238 849 q 260 796 238 817 q 314 774 283 774 q 367 796 345 774 q 390 849 390 817 q 367 902 390 880 q 314 924 345 924 q 260 902 283 924 q 238 849 238 880 z "},"æ":{"ha":1038,"x_min":38,"x_max":1014,"o":"m 728 658 q 940 574 868 658 q 1014 345 1012 490 l 1014 311 l 549 311 q 567 216 549 262 q 614 136 584 171 q 683 80 643 101 q 768 59 723 59 q 864 73 814 59 q 948 115 915 88 l 945 35 q 868 4 923 18 q 747 -10 814 -10 q 611 15 675 -10 q 498 93 548 40 q 394 21 455 49 q 265 -8 332 -8 q 102 38 166 -8 q 38 163 38 85 q 72 269 38 225 q 160 341 105 313 q 284 382 216 369 q 425 399 353 396 l 425 445 q 389 548 425 511 q 281 584 353 584 q 179 568 222 584 q 104 528 136 551 l 104 621 q 195 647 139 634 q 297 659 251 659 q 419 637 364 659 q 511 564 474 615 q 612 632 557 607 q 728 658 667 658 m 155 177 q 196 92 155 118 q 287 65 236 65 q 366 82 330 65 q 425 121 402 99 l 425 337 q 332 328 380 337 q 245 300 284 319 q 180 251 206 281 q 155 177 155 220 m 731 583 q 660 568 693 583 q 603 525 627 552 q 565 461 580 498 q 548 382 551 425 l 899 382 q 883 461 894 425 q 852 525 872 498 q 802 568 832 552 q 731 583 773 583 z "},"ç":{"ha":576,"x_min":38,"x_max":552,"o":"m 160 318 q 220 130 160 201 q 382 59 281 59 q 473 77 426 59 q 552 123 519 94 q 551 77 552 93 q 549 35 549 62 q 469 4 527 18 q 345 -10 412 -10 q 225 12 281 -10 q 128 76 169 34 q 62 179 86 118 q 38 318 38 239 q 65 461 38 398 q 135 568 91 524 q 236 636 179 613 q 358 659 294 659 q 458 649 405 659 q 541 627 511 639 l 541 535 q 472 572 514 557 q 382 586 429 586 q 220 513 281 586 q 160 318 160 441 m 267 -148 q 295 -75 283 -109 q 316 -19 307 -46 q 329 18 326 8 q 350 10 332 16 q 382 2 367 5 q 366 -35 372 -18 q 354 -62 359 -49 q 348 -80 350 -75 l 345 -88 q 369 -89 345 -86 q 421 -105 393 -93 q 472 -143 449 -118 q 495 -211 495 -168 q 465 -314 495 -275 q 396 -375 434 -353 q 321 -405 358 -398 q 271 -415 284 -413 l 238 -385 q 322 -361 284 -378 q 382 -318 354 -346 q 409 -239 409 -289 q 398 -193 409 -211 q 369 -165 386 -176 q 331 -152 351 -155 q 292 -148 311 -148 l 267 -148 l 267 -148 z "},"è":{"ha":663,"x_min":38,"x_max":627,"o":"m 342 658 q 553 574 481 658 q 627 345 626 490 l 627 311 l 163 311 q 180 216 163 262 q 227 136 198 171 q 297 80 257 101 q 382 59 337 59 q 478 73 428 59 q 562 115 528 88 l 559 35 q 481 4 535 18 q 361 -10 428 -10 q 236 10 295 -10 q 133 71 177 30 q 64 173 89 112 q 38 318 38 235 q 61 453 38 391 q 125 561 85 516 q 221 632 166 607 q 342 658 276 658 m 345 583 q 273 568 305 583 q 217 525 241 552 q 179 461 193 498 q 161 382 164 425 l 512 382 q 496 461 508 425 q 465 525 485 498 q 416 568 445 552 q 345 583 386 583 m 383 755 q 333 786 364 766 q 271 831 302 806 q 219 884 241 856 q 196 943 196 913 q 217 939 198 940 q 259 936 236 937 q 304 934 283 934 q 334 934 326 934 q 349 892 337 915 q 378 845 361 868 q 413 797 394 821 q 452 757 433 774 l 383 755 l 383 755 z "},"é":{"ha":663,"x_min":38,"x_max":627,"o":"m 342 658 q 553 574 481 658 q 627 345 626 490 l 627 311 l 163 311 q 180 216 163 262 q 227 136 198 171 q 297 80 257 101 q 382 59 337 59 q 478 73 428 59 q 562 115 528 88 l 559 35 q 481 4 535 18 q 361 -10 428 -10 q 236 10 295 -10 q 133 71 177 30 q 64 173 89 112 q 38 318 38 235 q 61 453 38 391 q 125 561 85 516 q 221 632 166 607 q 342 658 276 658 m 345 583 q 273 568 305 583 q 217 525 241 552 q 179 461 193 498 q 161 382 164 425 l 512 382 q 496 461 508 425 q 465 525 485 498 q 416 568 445 552 q 345 583 386 583 m 334 934 q 399 936 370 934 q 446 939 425 937 q 471 943 468 940 q 449 888 471 916 q 399 836 428 860 q 338 790 370 811 q 284 757 307 769 l 188 747 q 229 787 206 763 q 273 837 252 811 q 311 889 294 864 q 334 934 327 915 z "},"ê":{"ha":663,"x_min":38,"x_max":627,"o":"m 342 658 q 553 574 481 658 q 627 345 626 490 l 627 311 l 163 311 q 180 216 163 262 q 227 136 198 171 q 297 80 257 101 q 382 59 337 59 q 478 73 428 59 q 562 115 528 88 l 559 35 q 481 4 535 18 q 361 -10 428 -10 q 236 10 295 -10 q 133 71 177 30 q 64 173 89 112 q 38 318 38 235 q 61 453 38 391 q 125 561 85 516 q 221 632 166 607 q 342 658 276 658 m 345 583 q 273 568 305 583 q 217 525 241 552 q 179 461 193 498 q 161 382 164 425 l 512 382 q 496 461 508 425 q 465 525 485 498 q 416 568 445 552 q 345 583 386 583 m 342 966 l 391 912 q 464 834 426 875 q 540 757 501 793 l 473 757 q 406 807 442 779 q 334 865 370 835 q 260 808 299 837 q 193 757 222 779 l 126 757 q 164 795 142 771 q 213 847 187 819 q 267 906 239 875 q 321 966 294 937 l 342 966 z "},"ë":{"ha":663,"x_min":38,"x_max":627,"o":"m 342 658 q 553 574 481 658 q 627 345 626 490 l 627 311 l 163 311 q 180 216 163 262 q 227 136 198 171 q 297 80 257 101 q 382 59 337 59 q 478 73 428 59 q 562 115 528 88 l 559 35 q 481 4 535 18 q 361 -10 428 -10 q 236 10 295 -10 q 133 71 177 30 q 64 173 89 112 q 38 318 38 235 q 61 453 38 391 q 125 561 85 516 q 221 632 166 607 q 342 658 276 658 m 345 583 q 273 568 305 583 q 217 525 241 552 q 179 461 193 498 q 161 382 164 425 l 512 382 q 496 461 508 425 q 465 525 485 498 q 416 568 445 552 q 345 583 386 583 m 129 852 q 151 912 129 889 q 203 936 172 936 q 255 912 235 936 q 276 852 276 889 q 255 794 276 816 q 203 773 235 773 q 151 794 172 773 q 129 852 129 816 m 390 852 q 411 912 390 889 q 463 936 433 936 q 516 912 495 936 q 536 852 536 889 q 516 794 536 816 q 463 773 495 773 q 411 794 433 773 q 390 852 390 816 z "},"ì":{"ha":310,"x_min":-45,"x_max":239,"o":"m 220 105 q 226 38 220 64 q 239 0 231 13 l 80 0 q 96 39 88 14 q 104 105 104 64 l 104 544 q 97 610 104 584 q 81 648 89 635 l 239 648 q 226 607 231 634 q 220 544 220 581 l 220 105 m 142 755 q 92 786 123 766 q 30 831 61 806 q -22 884 0 856 q -45 943 -45 913 q -24 939 -43 940 q 18 936 -5 937 q 63 934 42 934 q 93 934 85 934 q 108 892 96 915 q 136 845 120 868 q 172 797 153 821 q 211 757 192 774 l 142 755 l 142 755 z "},"í":{"ha":310,"x_min":77,"x_max":359,"o":"m 220 105 q 226 38 220 64 q 239 0 231 13 l 80 0 q 96 39 88 14 q 104 105 104 64 l 104 544 q 97 610 104 584 q 81 648 89 635 l 239 648 q 226 607 231 634 q 220 544 220 581 l 220 105 m 222 934 q 287 936 259 934 q 334 939 313 937 q 359 943 356 940 q 338 888 359 916 q 287 836 316 860 q 227 790 259 811 q 172 757 195 769 l 77 747 q 117 787 94 763 q 161 837 140 811 q 199 889 182 864 q 222 934 216 915 z "},"î":{"ha":310,"x_min":-49,"x_max":364,"o":"m 220 105 q 226 38 220 64 q 239 0 231 13 l 80 0 q 96 39 88 14 q 104 105 104 64 l 104 544 q 97 610 104 584 q 81 648 89 635 l 239 648 q 226 607 231 634 q 220 544 220 581 l 220 105 m 166 966 l 216 912 q 288 834 251 875 q 364 757 326 793 l 297 757 q 231 807 267 779 q 158 865 195 835 q 85 808 123 837 q 18 757 46 779 l -49 757 q -11 795 -34 771 q 38 847 11 819 q 91 906 64 875 q 145 966 118 937 l 166 966 z "},"ï":{"ha":310,"x_min":-46,"x_max":361,"o":"m 220 105 q 226 38 220 64 q 239 0 231 13 l 80 0 q 96 39 88 14 q 104 105 104 64 l 104 544 q 97 610 104 584 q 81 648 89 635 l 239 648 q 226 607 231 634 q 220 544 220 581 l 220 105 m -46 852 q -25 912 -46 889 q 27 936 -3 936 q 80 912 59 936 q 101 852 101 889 q 80 794 101 816 q 27 773 59 773 q -25 794 -3 773 q -46 852 -46 816 m 214 852 q 235 912 214 889 q 287 936 257 936 q 340 912 319 936 q 361 852 361 889 q 340 794 361 816 q 287 773 319 773 q 235 794 257 773 q 214 852 214 816 z "},"ð":{"ha":664,"x_min":42,"x_max":632,"o":"m 343 650 q 368 648 351 650 q 405 640 385 647 q 448 623 425 634 q 492 594 471 613 q 423 722 468 663 q 330 829 378 782 q 239 907 283 875 q 174 951 195 939 l 231 977 l 235 975 q 283 947 247 967 q 362 891 318 926 q 453 806 405 856 q 541 691 501 757 q 607 545 581 626 q 632 367 632 465 q 611 212 632 281 q 552 94 589 144 q 462 18 514 45 q 348 -8 410 -8 q 221 16 278 -8 q 125 83 164 40 q 63 188 85 126 q 42 324 42 249 q 66 456 42 396 q 133 559 91 516 q 230 626 176 602 q 343 650 284 650 m 158 332 q 176 215 158 263 q 221 135 193 166 q 283 89 249 104 q 348 75 316 75 q 408 88 378 75 q 461 132 437 101 q 500 214 485 163 q 516 342 516 265 q 503 429 516 386 q 467 504 490 473 q 412 556 444 536 q 342 576 380 576 q 281 562 313 576 q 221 518 249 548 q 176 442 193 489 q 158 332 158 396 m 166 785 q 315 885 244 837 q 465 985 386 934 q 484 961 474 972 q 501 937 493 950 l 200 741 l 166 785 z "},"ñ":{"ha":706,"x_min":77,"x_max":647,"o":"m 511 429 q 481 535 511 495 q 401 575 452 575 q 217 503 303 575 l 217 105 q 223 38 217 64 q 236 0 228 13 l 77 0 q 93 39 86 14 q 101 105 101 64 l 101 544 q 93 610 101 584 q 78 648 86 635 l 211 648 q 215 611 212 634 q 217 572 217 589 q 328 636 268 615 q 439 658 388 658 q 535 639 498 658 q 592 590 572 621 q 620 520 613 559 q 627 441 627 481 l 627 105 q 633 38 627 64 q 647 0 639 13 l 489 0 q 504 39 496 14 q 511 105 511 64 l 511 429 l 511 429 m 445 774 q 389 782 421 774 q 334 808 356 790 q 293 833 314 822 q 251 843 271 843 q 206 826 227 843 q 176 774 185 809 l 128 774 q 173 877 136 846 q 260 908 211 908 q 313 900 283 908 q 369 873 343 891 q 449 845 404 845 q 499 860 476 845 q 532 908 522 876 l 580 908 q 534 805 572 837 q 445 774 496 774 z "},"ò":{"ha":690,"x_min":38,"x_max":661,"o":"m 38 318 q 63 462 38 399 q 130 569 88 525 q 229 636 172 613 q 350 659 286 659 q 469 636 412 659 q 568 569 525 613 q 636 462 611 525 q 661 318 661 399 q 636 180 661 241 q 568 77 611 120 q 469 13 525 35 q 350 -10 412 -10 q 229 13 286 -10 q 130 77 172 35 q 63 180 88 120 q 38 318 38 241 m 160 318 q 211 130 160 201 q 348 59 262 59 q 485 130 434 59 q 536 318 536 201 q 485 513 536 441 q 348 586 434 586 q 211 513 262 586 q 160 318 160 441 m 396 755 q 346 786 377 766 q 284 831 314 806 q 231 884 254 856 q 209 943 209 913 q 230 939 211 940 q 272 936 249 937 q 317 934 295 934 q 346 934 338 934 q 362 892 350 915 q 390 845 374 868 q 426 797 407 821 q 465 757 445 774 l 396 755 l 396 755 z "},"ó":{"ha":690,"x_min":38,"x_max":661,"o":"m 38 318 q 63 462 38 399 q 130 569 88 525 q 229 636 172 613 q 350 659 286 659 q 469 636 412 659 q 568 569 525 613 q 636 462 611 525 q 661 318 661 399 q 636 180 661 241 q 568 77 611 120 q 469 13 525 35 q 350 -10 412 -10 q 229 13 286 -10 q 130 77 172 35 q 63 180 88 120 q 38 318 38 241 m 160 318 q 211 130 160 201 q 348 59 262 59 q 485 130 434 59 q 536 318 536 201 q 485 513 536 441 q 348 586 434 586 q 211 513 262 586 q 160 318 160 441 m 346 934 q 412 936 383 934 q 459 939 437 937 q 484 943 481 940 q 462 888 484 916 q 412 836 441 860 q 351 790 383 811 q 297 757 319 769 l 201 747 q 242 787 219 763 q 286 837 265 811 q 323 889 307 864 q 346 934 340 915 z "},"ô":{"ha":690,"x_min":38,"x_max":661,"o":"m 38 318 q 63 462 38 399 q 130 569 88 525 q 229 636 172 613 q 350 659 286 659 q 469 636 412 659 q 568 569 525 613 q 636 462 611 525 q 661 318 661 399 q 636 180 661 241 q 568 77 611 120 q 469 13 525 35 q 350 -10 412 -10 q 229 13 286 -10 q 130 77 172 35 q 63 180 88 120 q 38 318 38 241 m 160 318 q 211 130 160 201 q 348 59 262 59 q 485 130 434 59 q 536 318 536 201 q 485 513 536 441 q 348 586 434 586 q 211 513 262 586 q 160 318 160 441 m 356 966 l 405 912 q 478 834 441 875 q 554 757 516 793 l 487 757 q 421 807 457 779 q 348 865 385 835 q 275 808 313 837 q 208 757 236 779 l 140 757 q 179 795 156 771 q 227 847 201 819 q 281 906 254 875 q 335 966 308 937 l 356 966 z "},"õ":{"ha":690,"x_min":38,"x_max":661,"o":"m 38 318 q 63 462 38 399 q 130 569 88 525 q 229 636 172 613 q 350 659 286 659 q 469 636 412 659 q 568 569 525 613 q 636 462 611 525 q 661 318 661 399 q 636 180 661 241 q 568 77 611 120 q 469 13 525 35 q 350 -10 412 -10 q 229 13 286 -10 q 130 77 172 35 q 63 180 88 120 q 38 318 38 241 m 160 318 q 211 130 160 201 q 348 59 262 59 q 485 130 434 59 q 536 318 536 201 q 485 513 536 441 q 348 586 434 586 q 211 513 262 586 q 160 318 160 441 m 439 774 q 382 782 415 774 q 327 808 350 790 q 287 833 308 822 q 244 843 265 843 q 200 826 220 843 q 169 774 179 809 l 121 774 q 167 877 129 846 q 254 908 204 908 q 307 900 276 908 q 362 873 337 891 q 442 845 398 845 q 492 860 469 845 q 525 908 516 876 l 573 908 q 528 805 565 837 q 439 774 490 774 z "},"ö":{"ha":690,"x_min":38,"x_max":661,"o":"m 38 318 q 63 462 38 399 q 130 569 88 525 q 229 636 172 613 q 350 659 286 659 q 469 636 412 659 q 568 569 525 613 q 636 462 611 525 q 661 318 661 399 q 636 180 661 241 q 568 77 611 120 q 469 13 525 35 q 350 -10 412 -10 q 229 13 286 -10 q 130 77 172 35 q 63 180 88 120 q 38 318 38 241 m 160 318 q 211 130 160 201 q 348 59 262 59 q 485 130 434 59 q 536 318 536 201 q 485 513 536 441 q 348 586 434 586 q 211 513 262 586 q 160 318 160 441 m 144 852 q 165 912 144 889 q 217 936 187 936 q 270 912 249 936 q 291 852 291 889 q 270 794 291 816 q 217 773 249 773 q 165 794 187 773 q 144 852 144 816 m 404 852 q 425 912 404 889 q 477 936 447 936 q 530 912 509 936 q 551 852 551 889 q 530 794 551 816 q 477 773 509 773 q 425 794 447 773 q 404 852 404 816 z "},"÷":{"ha":717,"x_min":78,"x_max":670,"o":"m 670 471 l 670 386 l 78 386 l 78 471 l 670 471 m 465 184 q 438 125 465 147 q 374 104 412 104 q 311 125 337 104 q 284 184 284 147 q 311 243 284 220 q 374 265 337 265 q 438 243 412 265 q 465 184 465 220 m 465 672 q 438 614 465 635 q 374 592 412 592 q 311 614 337 592 q 284 672 284 635 q 311 731 284 709 q 374 754 337 754 q 438 731 412 754 q 465 672 465 709 z "},"ø":{"ha":690,"x_min":38,"x_max":661,"o":"m 49 0 q 310 330 185 169 q 570 661 434 492 l 648 661 q 388 330 512 492 q 128 0 263 169 l 49 0 m 38 318 q 63 462 38 399 q 130 569 88 525 q 229 636 172 613 q 350 659 286 659 q 469 636 412 659 q 568 569 525 613 q 636 462 611 525 q 661 318 661 399 q 636 180 661 241 q 568 77 611 120 q 469 13 525 35 q 350 -10 412 -10 q 229 13 286 -10 q 130 77 172 35 q 63 180 88 120 q 38 318 38 241 m 160 318 q 211 130 160 201 q 348 59 262 59 q 485 130 434 59 q 536 318 536 201 q 485 513 536 441 q 348 586 434 586 q 211 513 262 586 q 160 318 160 441 z "},"ù":{"ha":712,"x_min":77,"x_max":648,"o":"m 216 220 q 245 113 216 153 q 326 73 275 73 q 421 92 377 73 q 509 147 466 110 l 509 544 q 502 611 509 586 q 487 648 495 635 l 648 648 q 633 609 640 634 q 626 544 626 584 l 626 105 q 632 38 626 64 q 647 0 639 13 l 516 0 q 512 38 514 14 q 509 78 509 61 q 398 14 458 35 q 287 -8 337 -8 q 192 10 228 -8 q 134 60 155 29 q 106 129 113 91 q 99 209 99 168 l 99 544 q 92 611 99 586 q 77 648 85 635 l 238 648 q 223 609 230 634 q 216 544 216 584 l 216 220 m 327 755 q 277 786 308 766 q 216 831 246 806 q 163 884 185 856 q 140 943 140 913 q 161 939 142 940 q 204 936 180 937 q 248 934 227 934 q 278 934 270 934 q 293 892 281 915 q 322 845 305 868 q 358 797 338 821 q 396 757 377 774 l 327 755 l 327 755 z "},"ú":{"ha":712,"x_min":77,"x_max":648,"o":"m 216 220 q 245 113 216 153 q 326 73 275 73 q 421 92 377 73 q 509 147 466 110 l 509 544 q 502 611 509 586 q 487 648 495 635 l 648 648 q 633 609 640 634 q 626 544 626 584 l 626 105 q 632 38 626 64 q 647 0 639 13 l 516 0 q 512 38 514 14 q 509 78 509 61 q 398 14 458 35 q 287 -8 337 -8 q 192 10 228 -8 q 134 60 155 29 q 106 129 113 91 q 99 209 99 168 l 99 544 q 92 611 99 586 q 77 648 85 635 l 238 648 q 223 609 230 634 q 216 544 216 584 l 216 220 m 453 934 q 519 936 490 934 q 566 939 544 937 q 591 943 587 940 q 569 888 591 916 q 519 836 548 860 q 458 790 490 811 q 404 757 426 769 l 308 747 q 349 787 326 763 q 393 837 372 811 q 430 889 413 864 q 453 934 447 915 z "},"û":{"ha":712,"x_min":77,"x_max":648,"o":"m 216 220 q 245 113 216 153 q 326 73 275 73 q 421 92 377 73 q 509 147 466 110 l 509 544 q 502 611 509 586 q 487 648 495 635 l 648 648 q 633 609 640 634 q 626 544 626 584 l 626 105 q 632 38 626 64 q 647 0 639 13 l 516 0 q 512 38 514 14 q 509 78 509 61 q 398 14 458 35 q 287 -8 337 -8 q 192 10 228 -8 q 134 60 155 29 q 106 129 113 91 q 99 209 99 168 l 99 544 q 92 611 99 586 q 77 648 85 635 l 238 648 q 223 609 230 634 q 216 544 216 584 l 216 220 m 367 966 l 417 912 q 489 834 452 875 q 565 757 527 793 l 498 757 q 432 807 468 779 q 359 865 396 835 q 286 808 324 837 q 219 757 247 779 l 152 757 q 190 795 168 771 q 239 847 212 819 q 292 906 265 875 q 346 966 319 937 l 367 966 z "},"ü":{"ha":712,"x_min":77,"x_max":648,"o":"m 216 220 q 245 113 216 153 q 326 73 275 73 q 421 92 377 73 q 509 147 466 110 l 509 544 q 502 611 509 586 q 487 648 495 635 l 648 648 q 633 609 640 634 q 626 544 626 584 l 626 105 q 632 38 626 64 q 647 0 639 13 l 516 0 q 512 38 514 14 q 509 78 509 61 q 398 14 458 35 q 287 -8 337 -8 q 192 10 228 -8 q 134 60 155 29 q 106 129 113 91 q 99 209 99 168 l 99 544 q 92 611 99 586 q 77 648 85 635 l 238 648 q 223 609 230 634 q 216 544 216 584 l 216 220 m 155 852 q 176 912 155 889 q 228 936 198 936 q 281 912 260 936 q 302 852 302 889 q 281 794 302 816 q 228 773 260 773 q 176 794 198 773 q 155 852 155 816 m 415 852 q 437 912 415 889 q 489 936 458 936 q 541 912 520 936 q 562 852 562 889 q 541 794 562 816 q 489 773 520 773 q 437 794 458 773 q 415 852 415 816 z "},"ý":{"ha":653,"x_min":29,"x_max":635,"o":"m 126 -276 q 73 -254 94 -276 q 51 -203 53 -231 q 69 -206 59 -206 q 86 -206 78 -206 q 202 -154 145 -206 q 292 10 259 -102 l 284 24 q 262 77 276 42 q 223 172 247 112 q 165 324 200 233 q 83 548 131 415 q 54 611 67 587 q 29 648 42 635 l 193 648 q 190 607 188 635 q 209 538 192 580 l 361 155 l 500 540 l 498 540 q 516 611 516 586 q 512 648 516 635 l 635 648 q 609 609 623 635 q 581 548 595 583 q 513 360 543 441 q 461 218 484 279 q 420 112 437 156 q 388 34 402 67 l 375 2 l 377 3 q 309 -138 342 -83 q 245 -223 276 -193 q 184 -265 214 -254 q 126 -276 155 -276 m 409 934 q 474 936 445 934 q 521 939 500 937 q 546 943 543 940 q 524 888 546 916 q 474 836 503 860 q 413 790 445 811 q 359 757 382 769 l 263 747 q 304 787 281 763 q 348 837 327 811 q 386 889 369 864 q 409 934 402 915 z "},"þ":{"ha":702,"x_min":77,"x_max":661,"o":"m 217 570 q 320 641 267 624 q 421 658 374 658 q 595 571 530 658 q 661 335 661 484 q 638 192 661 255 q 576 86 615 129 q 484 20 536 43 q 372 -3 431 -3 q 300 6 340 -3 q 217 37 260 14 l 217 -174 q 223 -241 217 -216 q 236 -279 228 -267 l 77 -279 q 93 -240 85 -265 q 101 -174 101 -216 l 101 872 q 93 939 101 913 q 78 977 86 964 l 236 977 q 223 936 228 963 q 217 872 217 910 l 217 570 m 544 327 q 495 519 544 465 q 367 573 445 573 q 280 549 321 573 q 217 493 239 525 l 217 110 q 275 86 246 96 q 335 77 303 77 q 417 92 378 77 q 483 138 455 107 q 528 216 511 169 q 544 327 544 263 z "},"ÿ":{"ha":653,"x_min":29,"x_max":635,"o":"m 126 -276 q 73 -254 94 -276 q 51 -203 53 -231 q 69 -206 59 -206 q 86 -206 78 -206 q 202 -154 145 -206 q 292 10 259 -102 l 284 24 q 262 77 276 42 q 223 172 247 112 q 165 324 200 233 q 83 548 131 415 q 54 611 67 587 q 29 648 42 635 l 193 648 q 190 607 188 635 q 209 538 192 580 l 361 155 l 500 540 l 498 540 q 516 611 516 586 q 512 648 516 635 l 635 648 q 609 609 623 635 q 581 548 595 583 q 513 360 543 441 q 461 218 484 279 q 420 112 437 156 q 388 34 402 67 l 375 2 l 377 3 q 309 -138 342 -83 q 245 -223 276 -193 q 184 -265 214 -254 q 126 -276 155 -276 m 125 852 q 146 912 125 889 q 198 936 168 936 q 251 912 230 936 q 271 852 271 889 q 251 794 271 816 q 198 773 230 773 q 146 794 168 773 q 125 852 125 816 m 385 852 q 406 912 385 889 q 458 936 428 936 q 511 912 490 936 q 532 852 532 889 q 511 794 532 816 q 458 773 490 773 q 406 794 428 773 q 385 852 385 816 z "},"ı":{"ha":310,"x_min":80,"x_max":239,"o":"m 220 105 q 226 38 220 64 q 239 0 231 13 l 80 0 q 96 39 88 14 q 104 105 104 64 l 104 544 q 97 610 104 584 q 81 648 89 635 l 239 648 q 226 607 231 634 q 220 544 220 581 l 220 105 z "},"Ł":{"ha":591,"x_min":2,"x_max":581,"o":"m 572 0 l 64 0 q 89 52 77 18 q 102 137 102 86 l 102 800 q 89 886 102 852 q 64 937 77 920 l 251 937 q 228 883 239 918 q 217 800 217 848 l 217 86 l 437 86 q 526 99 493 86 q 581 134 559 112 l 572 0 m 356 607 l 356 524 l 2 354 l 2 437 l 356 607 z "},"ł":{"ha":390,"x_min":19,"x_max":375,"o":"m 252 554 q 311 582 276 567 q 375 611 346 597 l 375 527 l 252 468 l 252 105 q 258 38 252 64 q 271 0 263 13 l 112 0 q 129 39 121 14 q 136 105 136 64 l 136 413 q 79 388 112 402 q 19 359 46 374 l 19 442 l 136 498 l 136 872 q 129 939 136 913 q 113 977 121 964 l 271 977 q 258 936 263 963 q 252 872 252 910 l 252 554 z "},"Œ":{"ha":1146,"x_min":49,"x_max":1108,"o":"m 49 463 q 89 667 49 578 q 197 815 129 755 q 357 906 265 875 q 554 937 449 937 l 1102 937 l 1108 814 q 1054 842 1087 833 q 966 851 1022 851 l 746 851 l 746 524 l 969 524 q 1033 533 1007 524 q 1073 554 1058 543 q 1074 481 1073 512 q 1074 412 1074 450 q 1032 433 1058 423 q 969 444 1006 444 l 746 444 l 746 86 l 966 86 q 1054 96 1022 86 q 1106 126 1086 105 q 1105 90 1105 105 q 1104 61 1105 75 q 1103 34 1103 48 q 1102 0 1103 19 l 554 0 q 357 31 449 0 q 197 122 265 62 q 89 268 129 182 q 49 463 49 354 m 631 227 q 630 472 631 318 q 629 856 629 626 l 552 856 q 409 829 477 856 q 289 754 340 803 q 208 632 238 704 q 177 468 177 560 q 208 310 177 380 q 289 190 238 239 q 409 113 340 140 q 552 86 477 86 l 631 86 l 631 227 z "},"œ":{"ha":1133,"x_min":35,"x_max":1124,"o":"m 838 658 q 1050 574 977 658 q 1124 345 1122 490 l 1124 311 l 659 311 q 677 216 659 262 q 724 136 694 171 q 793 80 754 101 q 876 59 832 59 q 974 73 923 59 q 1058 115 1025 88 l 1055 35 q 978 4 1031 18 q 856 -10 924 -10 q 711 20 779 -10 q 592 110 643 49 q 480 22 543 53 q 346 -10 417 -10 q 226 13 283 -10 q 127 77 169 35 q 60 180 85 120 q 35 318 35 241 q 60 462 35 399 q 127 569 85 525 q 226 636 169 613 q 346 659 283 659 q 483 626 418 659 q 597 530 548 592 q 704 624 642 591 q 838 658 766 658 m 156 318 q 208 130 156 201 q 345 59 259 59 q 482 130 431 59 q 533 318 533 201 q 482 513 533 441 q 345 586 431 586 q 208 513 259 586 q 156 318 156 441 m 841 583 q 769 568 801 583 q 714 525 738 552 q 675 461 690 498 q 658 382 661 425 l 1009 382 q 993 461 1004 425 q 962 525 982 498 q 912 568 942 552 q 841 583 883 583 z "},"Š":{"ha":635,"x_min":49,"x_max":611,"o":"m 484 219 q 470 285 484 255 q 433 338 457 314 q 377 380 409 361 q 310 417 345 399 q 217 466 263 439 q 134 528 171 493 q 74 609 97 564 q 51 714 51 655 q 73 808 51 765 q 132 883 94 851 q 220 932 169 915 q 332 950 271 950 q 472 936 418 950 q 559 902 525 921 l 559 798 q 480 848 530 827 q 369 870 429 870 q 226 829 273 870 q 179 736 179 789 q 195 676 179 704 q 237 624 211 648 q 298 579 263 600 q 369 538 332 557 q 464 482 420 511 q 540 418 508 453 q 592 340 573 383 q 611 241 611 297 q 587 137 611 185 q 522 55 564 89 q 423 2 481 21 q 299 -18 366 -18 q 154 -3 212 -18 q 61 29 96 11 l 49 152 q 150 89 88 115 q 270 62 212 62 q 361 77 321 62 q 428 113 401 91 q 469 164 455 136 q 484 219 484 192 m 308 1046 q 260 1100 286 1071 q 208 1157 235 1129 q 158 1210 182 1185 q 113 1255 134 1236 l 180 1255 q 247 1205 211 1232 q 321 1146 284 1177 q 393 1203 354 1173 q 460 1255 431 1232 l 525 1255 q 458 1185 496 1228 q 378 1100 420 1143 l 329 1046 l 308 1046 z "},"š":{"ha":541,"x_min":64,"x_max":496,"o":"m 380 168 q 342 227 380 204 q 254 275 305 249 q 188 305 222 289 q 126 343 153 321 q 81 396 99 366 q 64 469 64 426 q 83 550 64 514 q 135 610 102 586 q 212 647 168 634 q 308 659 257 659 q 398 649 356 659 q 468 627 441 639 l 468 540 q 400 571 441 559 q 318 583 359 583 q 220 559 259 583 q 180 489 180 535 q 218 429 180 452 q 307 382 255 405 q 374 350 340 367 q 434 311 407 334 q 479 258 461 289 q 496 184 496 227 q 477 101 496 137 q 422 41 457 65 q 342 3 388 16 q 246 -10 297 -10 q 151 1 200 -10 q 73 22 102 11 l 67 126 q 148 84 101 102 q 243 65 196 65 q 343 93 307 65 q 380 168 380 120 m 260 790 q 212 845 238 816 q 160 901 187 873 q 110 955 134 929 q 65 999 86 980 l 133 999 q 200 949 163 977 q 273 891 236 921 q 345 947 307 918 q 412 999 383 977 l 477 999 q 410 930 449 972 q 330 845 372 888 l 281 790 l 260 790 z "},"Ÿ":{"ha":829,"x_min":26,"x_max":813,"o":"m 481 369 l 481 137 q 493 51 481 85 q 517 0 506 18 l 327 0 q 353 52 340 18 q 366 137 366 86 l 366 369 l 101 835 q 60 892 80 867 q 26 934 40 916 q 85 935 57 934 q 137 936 112 936 q 188 936 163 936 q 246 937 214 937 q 239 896 239 923 q 243 864 239 881 q 260 825 247 848 l 460 481 l 640 825 q 657 864 653 848 q 661 896 661 881 q 653 937 661 921 l 813 937 q 774 894 795 920 q 736 835 754 868 l 481 369 m 254 1124 q 275 1184 254 1161 q 327 1207 297 1207 q 380 1184 359 1207 q 401 1124 401 1161 q 380 1066 401 1087 q 327 1044 359 1044 q 275 1066 297 1044 q 254 1124 254 1087 m 514 1124 q 536 1184 514 1161 q 587 1207 557 1207 q 640 1184 619 1207 q 661 1124 661 1161 q 640 1066 661 1087 q 587 1044 619 1044 q 536 1066 557 1044 q 514 1124 514 1087 z "},"Ž":{"ha":747,"x_min":34,"x_max":718,"o":"m 35 83 q 85 162 49 107 q 172 291 121 217 q 283 451 222 364 q 404 627 343 538 l 559 851 l 180 851 q 91 840 125 851 q 35 809 57 829 q 36 845 35 830 q 37 874 37 860 q 38 902 37 888 q 38 937 38 916 l 718 937 l 718 870 q 672 797 704 846 q 595 682 640 749 q 492 533 549 615 q 370 361 434 452 q 277 226 329 299 q 179 86 225 153 l 573 86 q 663 97 629 86 q 718 128 696 107 q 718 91 718 105 q 717 63 717 77 q 716 35 717 49 q 715 0 715 21 l 34 0 l 35 83 m 364 1046 q 316 1100 342 1071 q 264 1157 291 1129 q 214 1210 238 1185 q 169 1255 190 1236 l 236 1255 q 303 1205 267 1232 q 377 1146 340 1177 q 449 1203 410 1173 q 516 1255 487 1232 l 581 1255 q 514 1185 552 1228 q 434 1100 476 1143 l 385 1046 l 364 1046 z "},"ž":{"ha":525,"x_min":34,"x_max":509,"o":"m 35 65 l 160 260 q 223 360 190 308 q 284 457 255 412 q 334 535 313 501 q 364 578 356 568 l 182 578 q 90 572 123 578 q 35 548 57 565 q 37 600 35 580 q 38 648 38 621 l 509 648 l 509 595 q 468 528 498 576 q 398 421 437 481 q 318 298 359 361 q 243 184 276 235 l 169 70 l 362 70 q 453 76 418 70 q 509 99 487 81 q 508 47 509 67 q 506 0 506 27 l 34 0 l 35 65 m 252 790 q 204 845 230 816 q 152 901 179 873 q 102 955 126 929 q 57 999 78 980 l 125 999 q 192 949 155 977 q 265 891 228 921 q 337 947 299 918 q 404 999 375 977 l 469 999 q 402 930 441 972 q 322 845 364 888 l 273 790 l 252 790 z "},"ƒ":{"ha":698,"x_min":19,"x_max":696,"o":"m 311 580 l 206 580 l 206 648 l 324 648 l 345 782 q 427 932 361 878 q 580 987 493 987 q 642 979 616 987 q 686 964 667 972 q 686 926 686 945 q 685 889 685 907 q 603 912 655 912 q 511 881 549 912 q 461 782 473 851 l 441 648 l 586 648 l 586 580 l 428 580 l 367 188 q 284 39 350 94 q 133 -16 219 -16 q 71 -10 96 -16 q 27 5 46 -3 q 30 42 27 27 q 32 78 32 56 q 65 65 45 70 q 110 59 86 59 q 201 87 163 59 q 252 188 239 115 l 311 580 m 686 972 l 693 963 q 689 963 690 963 q 686 964 688 964 l 686 972 m 21 8 q 27 5 24 5 l 27 -2 l 21 8 m 693 963 q 693 961 696 961 l 693 963 m 19 8 l 21 8 l 19 8 m 19 8 q 19 10 21 8 l 19 8 m 693 961 l 694 961 l 693 961 z "},"ˆ":{"ha":517,"x_min":56,"x_max":469,"o":"m 271 966 l 321 912 q 394 834 356 875 q 469 757 431 793 l 402 757 q 336 807 372 779 q 263 865 300 835 q 190 808 228 837 q 123 757 152 779 l 56 757 q 94 795 72 771 q 143 847 117 819 q 196 906 169 875 q 251 966 223 937 l 271 966 z "},"ˇ":{"ha":517,"x_min":56,"x_max":468,"o":"m 251 790 q 203 845 228 816 q 151 901 177 873 q 101 955 125 929 q 56 999 77 980 l 123 999 q 190 949 153 977 q 263 891 227 921 q 335 947 297 918 q 402 999 374 977 l 468 999 q 401 930 439 972 q 321 845 362 888 l 271 790 l 251 790 z "},"˘":{"ha":340,"x_min":21,"x_max":326,"o":"m 171 774 q 75 813 120 774 q 21 926 30 852 l 69 926 q 108 863 78 881 q 171 845 137 845 q 236 865 208 845 q 278 926 265 886 l 326 926 q 271 813 316 852 q 176 774 227 774 l 171 774 z "},"˙":{"ha":275,"x_min":70,"x_max":217,"o":"m 70 852 q 91 912 70 889 q 144 936 112 936 q 196 912 174 936 q 217 852 217 889 q 196 794 217 816 q 144 773 174 773 q 91 794 112 773 q 70 852 70 816 z "},"˚":{"ha":458,"x_min":123,"x_max":342,"o":"m 123 849 q 155 927 123 894 q 233 959 187 959 q 310 927 278 959 q 342 849 342 894 q 310 770 342 803 q 233 738 278 738 q 155 770 187 738 q 123 849 123 803 m 156 849 q 179 796 156 817 q 233 774 201 774 q 286 796 263 774 q 308 849 308 817 q 286 902 308 880 q 233 924 263 924 q 179 902 201 924 q 156 849 156 880 z "},"˛":{"ha":300,"x_min":42,"x_max":263,"o":"m 171 5 q 188 6 180 6 l 219 6 q 164 -53 192 -16 q 131 -139 137 -91 q 161 -229 126 -200 q 239 -259 196 -259 q 263 -257 255 -259 l 244 -295 q 222 -303 235 -299 q 196 -310 211 -307 q 164 -313 182 -313 q 125 -308 145 -314 q 85 -287 104 -302 q 54 -250 67 -273 q 42 -193 42 -227 q 53 -141 42 -169 q 83 -86 64 -113 q 125 -34 102 -59 q 171 5 148 -10 z "},"˜":{"ha":496,"x_min":27,"x_max":479,"o":"m 345 774 q 288 782 321 774 q 233 808 255 790 q 192 833 214 822 q 150 843 171 843 q 105 826 126 843 q 75 774 85 809 l 27 774 q 73 877 35 846 q 160 908 110 908 q 212 900 182 908 q 268 873 243 891 q 348 845 303 845 q 398 860 375 845 q 431 908 421 876 l 479 908 q 433 805 471 837 q 345 774 396 774 z "},"˝":{"ha":578,"x_min":142,"x_max":637,"o":"m 287 934 q 353 936 324 934 q 400 939 378 937 q 425 943 421 940 q 403 888 425 916 q 353 836 382 860 q 292 790 324 811 q 239 757 260 769 l 142 747 q 183 787 160 763 q 227 837 206 811 q 264 889 247 864 q 287 934 281 915 m 500 934 q 565 936 536 934 q 612 939 591 937 q 637 943 634 940 q 615 888 637 916 q 565 836 594 860 q 504 790 536 811 q 450 757 473 769 l 354 747 q 395 787 372 763 q 439 837 418 811 q 477 889 460 864 q 500 934 493 915 z "},"–":{"ha":717,"x_min":2,"x_max":723,"o":"m 723 466 l 723 382 l 2 382 l 2 466 l 723 466 z "},"—":{"ha":1483,"x_min":-3,"x_max":1501,"o":"m 1501 466 l 1501 382 l -3 382 l -3 466 l 1501 466 z "},"‘":{"ha":307,"x_min":86,"x_max":265,"o":"m 86 754 q 119 873 86 817 q 228 958 152 929 q 192 904 206 932 q 177 854 177 876 q 188 821 177 837 q 216 798 198 805 q 265 726 265 781 q 239 667 265 690 q 176 645 214 645 q 112 674 137 645 q 86 754 86 702 z "},"’":{"ha":307,"x_min":70,"x_max":249,"o":"m 249 841 q 216 722 249 777 q 107 637 184 666 q 144 690 129 663 q 158 741 158 718 q 148 774 158 758 q 120 797 137 790 q 70 868 70 814 q 96 928 70 905 q 160 950 121 950 q 223 921 198 950 q 249 841 249 892 z "},"‚":{"ha":311,"x_min":70,"x_max":249,"o":"m 249 43 q 216 -77 249 -21 q 107 -161 184 -133 q 144 -108 129 -136 q 158 -57 158 -80 q 148 -24 158 -40 q 120 -2 137 -8 q 70 70 70 16 q 96 129 70 107 q 160 152 121 152 q 223 123 198 152 q 249 43 249 94 z "},"“":{"ha":536,"x_min":86,"x_max":504,"o":"m 86 754 q 119 873 86 817 q 228 958 152 929 q 192 904 206 932 q 177 854 177 876 q 188 821 177 837 q 216 798 198 805 q 265 726 265 781 q 239 667 265 690 q 176 645 214 645 q 112 674 137 645 q 86 754 86 702 m 326 754 q 358 873 326 817 q 468 958 391 929 q 431 904 445 932 q 417 854 417 876 q 427 821 417 837 q 455 798 437 805 q 504 726 504 781 q 479 667 504 690 q 415 645 453 645 q 351 674 377 645 q 326 754 326 702 z "},"”":{"ha":548,"x_min":70,"x_max":489,"o":"m 249 841 q 216 722 249 777 q 107 637 184 666 q 144 690 129 663 q 158 741 158 718 q 148 774 158 758 q 120 797 137 790 q 70 868 70 814 q 96 928 70 905 q 160 950 121 950 q 223 921 198 950 q 249 841 249 892 m 489 841 q 456 722 489 777 q 346 637 423 666 q 383 690 369 663 q 398 741 398 718 q 387 774 398 758 q 359 797 377 790 q 310 868 310 814 q 335 928 310 905 q 399 950 361 950 q 463 921 437 950 q 489 841 489 892 z "},"„":{"ha":548,"x_min":70,"x_max":489,"o":"m 249 43 q 216 -77 249 -21 q 107 -161 184 -133 q 144 -108 129 -136 q 158 -57 158 -80 q 148 -24 158 -40 q 120 -2 137 -8 q 70 70 70 16 q 96 129 70 107 q 160 152 121 152 q 223 123 198 152 q 249 43 249 94 m 489 43 q 456 -77 489 -21 q 346 -161 423 -133 q 383 -108 369 -136 q 398 -57 398 -80 q 387 -24 398 -40 q 359 -2 377 -8 q 310 70 310 16 q 335 129 310 107 q 399 152 361 152 q 463 123 437 152 q 489 43 489 94 z "},"†":{"ha":717,"x_min":144,"x_max":605,"o":"m 415 966 l 415 693 q 510 702 461 696 q 605 710 559 707 l 605 626 l 415 643 l 415 -86 l 334 -86 l 334 643 q 239 635 287 640 q 144 626 190 629 l 144 710 l 334 693 l 334 966 l 415 966 z "},"‡":{"ha":717,"x_min":144,"x_max":605,"o":"m 415 966 l 415 693 q 510 702 461 696 q 605 710 559 707 l 605 626 l 415 643 l 415 236 q 510 245 461 239 q 605 254 559 251 l 605 169 l 415 187 l 415 -86 l 334 -86 l 334 187 q 239 178 287 184 q 144 169 190 172 l 144 254 l 334 236 l 334 643 q 239 635 287 640 q 144 626 190 629 l 144 710 l 334 693 l 334 966 l 415 966 z "},"•":{"ha":495,"x_min":67,"x_max":433,"o":"m 67 394 q 81 469 67 436 q 121 527 96 503 q 179 564 145 551 q 251 578 212 578 q 322 564 289 578 q 379 527 354 551 q 418 469 404 503 q 433 394 433 436 q 380 265 433 313 q 251 217 327 217 q 179 230 212 217 q 121 266 145 243 q 81 322 96 289 q 67 394 67 354 z "},"…":{"ha":966,"x_min":67,"x_max":913,"o":"m 67 70 q 93 129 67 107 q 156 152 118 152 q 220 129 195 152 q 246 70 246 107 q 220 12 246 34 q 156 -10 195 -10 q 93 12 118 -10 q 67 70 67 34 m 401 70 q 427 129 401 107 q 490 152 453 152 q 554 129 528 152 q 580 70 580 107 q 554 12 580 34 q 490 -10 528 -10 q 427 12 453 -10 q 401 70 401 34 m 734 70 q 761 129 734 107 q 824 152 787 152 q 888 129 862 152 q 913 70 913 107 q 888 12 913 34 q 824 -10 862 -10 q 761 12 787 -10 q 734 70 734 34 z "},"‰":{"ha":1167,"x_min":29,"x_max":1141,"o":"m 1141 219 q 1128 124 1141 166 q 1090 52 1114 81 q 1035 6 1066 22 q 969 -10 1004 -10 q 838 62 897 -10 q 707 -10 776 -10 q 641 6 672 -10 q 586 52 610 22 q 548 124 562 81 q 535 219 535 166 q 548 321 535 276 q 586 396 562 366 q 641 442 610 426 q 707 458 672 458 q 775 440 741 458 q 838 386 809 421 q 969 458 896 458 q 1035 442 1004 458 q 1090 396 1066 426 q 1128 321 1114 366 q 1141 219 1141 276 m 29 707 q 42 809 29 765 q 80 884 56 854 q 135 931 104 915 q 201 947 166 947 q 267 931 236 947 q 322 884 299 915 q 360 809 346 854 q 374 707 374 765 q 360 612 374 655 q 322 540 346 570 q 267 495 299 511 q 201 479 236 479 q 135 495 166 479 q 80 540 104 511 q 42 612 56 570 q 29 707 29 655 m 168 0 l 91 0 q 101 12 96 5 q 121 41 105 19 q 165 105 136 62 q 247 223 195 147 q 378 417 299 300 q 573 702 457 533 l 734 937 l 816 937 l 168 0 m 618 219 q 642 89 618 137 q 707 42 666 42 q 769 86 746 42 q 795 208 792 131 l 795 230 q 769 358 792 311 q 707 405 747 405 q 642 355 666 405 q 618 219 618 305 m 112 707 q 136 579 112 627 q 201 530 160 530 q 266 579 243 530 q 289 707 289 627 q 266 844 289 793 q 201 894 243 894 q 136 844 160 894 q 112 707 112 793 m 1058 219 q 1034 355 1058 305 q 969 405 1011 405 q 905 358 929 405 q 880 230 881 311 l 880 219 q 904 89 880 137 q 969 42 928 42 q 1034 89 1011 42 q 1058 219 1058 137 z "},"‹":{"ha":449,"x_min":57,"x_max":407,"o":"m 407 683 l 407 605 l 169 423 q 287 334 225 382 q 407 243 350 286 l 407 166 q 232 279 314 227 q 57 391 150 330 l 57 457 l 407 683 z "},"›":{"ha":449,"x_min":57,"x_max":407,"o":"m 407 457 l 407 391 l 57 164 l 57 243 l 295 423 q 177 514 239 466 q 57 605 115 562 l 57 683 l 407 457 z "},"⁄":{"ha":243,"x_min":-231,"x_max":493,"o":"m -155 0 l -231 0 q -219 16 -225 6 q -192 55 -212 26 q -129 146 -171 85 q -10 321 -86 208 l 412 937 l 493 937 l -155 0 z "},"€":{"ha":848,"x_min":45,"x_max":819,"o":"m 152 626 q 215 763 174 702 q 310 865 255 824 q 427 928 364 907 q 559 950 490 950 q 711 936 650 950 q 809 902 773 921 l 809 797 q 576 870 742 870 q 399 805 471 870 q 294 626 327 741 l 683 626 q 670 582 677 602 q 656 541 663 562 l 279 541 q 277 503 278 525 q 276 463 276 481 q 276 436 276 450 q 279 398 276 421 l 634 398 q 620 354 627 375 q 607 313 613 334 l 294 313 q 405 133 330 198 q 580 67 481 67 q 712 87 647 67 q 819 152 777 107 l 819 45 q 702 5 773 19 q 554 -10 631 -10 q 418 12 482 -10 q 302 75 354 34 q 210 176 249 117 q 150 313 171 236 l 45 313 l 45 398 l 134 398 q 131 436 131 421 q 131 463 131 450 q 132 498 131 481 q 136 541 133 516 l 45 541 l 45 626 l 152 626 z "},"™":{"ha":640,"x_min":11,"x_max":618,"o":"m 13 940 l 247 940 l 249 881 q 231 898 241 892 q 196 904 220 904 l 153 904 l 153 701 q 160 664 153 675 q 169 651 168 653 l 89 651 q 99 663 91 651 q 107 701 107 675 l 107 904 l 64 904 q 30 898 40 904 q 11 881 19 892 l 13 940 m 327 940 q 357 892 326 939 q 449 736 388 846 q 532 892 506 845 q 556 940 557 939 l 618 940 q 608 927 616 939 q 600 891 600 915 l 600 701 q 608 663 600 675 q 618 651 616 651 l 538 651 q 547 664 540 653 q 554 701 554 675 l 554 840 q 490 718 517 766 q 455 651 463 669 l 434 651 q 416 685 431 659 q 382 741 401 710 q 346 799 362 771 q 324 840 329 827 l 324 701 q 331 664 324 675 q 340 651 338 653 l 270 651 q 279 663 271 651 q 286 701 286 675 l 286 891 q 279 927 286 915 q 270 940 271 939 l 327 940 z "},"−":{"ha":717,"x_min":78,"x_max":670,"o":"m 670 466 l 670 382 l 78 382 l 78 466 l 670 466 z "},"ﬁ":{"ha":694,"x_min":13,"x_max":643,"o":"m 623 105 q 629 38 623 64 q 643 0 635 13 l 484 0 q 499 39 492 14 q 506 105 506 64 l 506 580 l 235 580 l 235 105 q 241 38 235 64 q 255 0 247 13 l 96 0 q 111 39 104 14 q 118 105 118 64 l 118 580 l 13 580 l 13 648 l 118 648 l 118 734 q 136 828 118 782 q 189 908 153 873 q 281 965 225 943 q 415 987 337 987 q 512 979 469 987 q 587 964 556 972 l 587 840 q 519 892 560 872 q 407 912 477 912 q 333 897 366 912 q 279 858 300 883 q 246 801 257 833 q 235 731 235 768 l 235 648 l 643 648 q 629 607 635 634 q 623 544 623 581 l 623 105 z "},"ﬂ":{"ha":688,"x_min":13,"x_max":655,"o":"m 634 105 q 640 38 634 64 q 655 0 647 13 l 495 0 q 510 39 503 14 q 517 105 517 64 l 517 865 q 461 895 500 878 q 370 912 421 912 q 275 883 316 912 q 235 781 235 854 l 235 648 l 394 648 l 394 580 l 235 580 l 235 105 q 241 38 235 64 q 255 0 247 13 l 96 0 q 111 39 104 14 q 118 105 118 64 l 118 580 l 13 580 l 13 648 l 118 648 l 118 784 q 134 869 118 832 q 177 933 150 907 q 241 973 204 959 q 321 987 278 987 q 440 970 393 987 q 517 936 487 953 q 518 955 517 942 q 520 977 519 967 l 655 977 q 640 936 647 963 q 634 872 634 910 l 634 105 z "}}}
